<?xml version="1.0" encoding="UTF-8" standalone="no"?>
<!DOCTYPE svg PUBLIC "-//W3C//DTD SVG 1.1//EN" "http://www.w3.org/Graphics/SVG/1.1/DTD/svg11.dtd">
<svg xmlns="http://www.w3.org/2000/svg" version="1.1" viewBox="0 0 612 612">
<g stroke-width="2.00" fill="none" stroke-linecap="butt">
<path stroke="#a7a7a7" vector-effect="non-scaling-stroke" d="
  M 476.37 95.05
  L 442.72 329.42
  A 0.68 0.67 8.0 0 1 441.95 329.99
  L 404.57 324.62
  A 0.86 0.79 3.7 0 0 403.59 325.41
  L 403.74 332.94
  A 0.66 0.58 4.1 0 0 404.30 333.51
  L 449.58 340.05
  A 0.64 0.62 -82.1 0 0 450.28 339.51
  L 486.51 87.45
  A 0.55 0.54 8.4 0 0 486.04 86.83
  L 261.18 54.49
  A 0.52 0.51 8.2 0 0 260.59 54.93
  L 253.50 104.56
  A 0.48 0.45 -86.1 0 0 253.94 105.10
  L 261.69 105.21
  A 0.59 0.56 -85.4 0 0 262.26 104.70
  L 267.98 65.16
  A 0.55 0.54 -82.0 0 1 268.59 64.69
  L 475.94 94.49
  A 0.50 0.49 8.0 0 1 476.37 95.05"
/>
<path stroke="#a7a7a7" vector-effect="non-scaling-stroke" d="
  M 404.32 287.14
  L 437.54 291.89
  A 1.01 1.00 -82.0 0 0 438.67 291.03
  L 465.69 103.05
  A 0.46 0.45 8.4 0 0 465.31 102.54
  L 276.81 75.63
  A 0.52 0.51 7.9 0 0 276.23 76.06
  L 272.15 104.55
  A 0.62 0.61 4.0 0 0 272.77 105.25
  L 402.63 105.25
  A 0.87 0.87 0.0 0 1 403.50 106.12
  L 403.50 286.19
  A 0.96 0.96 -85.8 0 0 404.32 287.14"
/>
<path stroke="#a7a7a7" vector-effect="non-scaling-stroke" d="
  M 392.92 117.77
  A 0.27 0.27 0.0 0 0 392.65 117.50
  L 164.77 117.50
  A 0.27 0.27 0.0 0 0 164.50 117.77
  L 164.50 372.97
  A 0.27 0.27 0.0 0 0 164.77 373.24
  L 392.65 373.24
  A 0.27 0.27 0.0 0 0 392.92 372.97
  L 392.92 117.77"
/>
<path stroke="#a7a7a7" vector-effect="non-scaling-stroke" d="
  M 295.23 477.75
  Q 300.51 481.99 306.06 483.19
  Q 323.33 486.93 334.83 476.05
  Q 340.08 471.07 343.17 463.87
  Q 346.12 456.98 346.65 449.26
  Q 347.13 442.37 346.00 434.75
  Q 344.10 421.94 334.95 413.31
  Q 326.97 405.78 315.00 405.50
  Q 305.25 405.27 297.88 409.71
  Q 291.44 413.58 287.03 421.15
  Q 282.96 428.13 281.86 436.48
  Q 280.43 447.38 282.90 458.07
  Q 285.67 470.08 295.23 477.75"
/>
<path stroke="#a7a7a7" vector-effect="non-scaling-stroke" d="
  M 443.00 477.73
  Q 450.52 483.69 460.75 484.00
  Q 472.88 484.36 481.59 476.82
  Q 488.58 470.76 491.44 462.69
  Q 496.18 449.28 493.79 434.49
  Q 492.01 423.53 485.94 416.31
  Q 474.58 402.82 455.94 405.97
  Q 443.09 408.14 436.25 418.75
  Q 429.37 429.43 429.05 442.75
  Q 428.87 450.31 430.75 458.25
  Q 433.59 470.25 443.00 477.73"
/>
<path stroke="#a7a7a7" vector-effect="non-scaling-stroke" d="
  M 124.19 482.78
  Q 131.96 483.14 140.61 482.98
  A 0.65 0.65 -0.4 0 0 141.25 482.33
  L 141.25 455.87
  A 0.91 0.91 1.8 0 1 142.22 454.96
  Q 149.38 455.36 155.75 455.03
  Q 163.43 454.63 169.08 450.45
  Q 174.48 446.45 176.90 439.57
  Q 180.09 430.52 176.44 421.06
  Q 173.23 412.77 165.70 409.25
  Q 161.52 407.30 152.50 406.87
  Q 137.05 406.12 120.66 406.53
  A 0.94 0.94 -0.9 0 0 119.75 407.47
  L 119.75 482.05
  A 0.71 0.70 89.2 0 0 120.47 482.76
  Q 122.47 482.70 124.19 482.78"
/>
<path stroke="#a7a7a7" vector-effect="non-scaling-stroke" d="
  M 221.81 453.30
  L 236.81 453.42
  A 0.52 0.49 90.0 0 1 237.30 453.94
  L 237.48 481.81
  A 1.28 1.24 -0.2 0 0 238.76 483.04
  L 257.66 483.02
  A 0.84 0.82 0.0 0 0 258.50 482.20
  L 258.50 407.39
  A 0.88 0.87 -90.0 0 0 257.63 406.51
  L 237.93 406.67
  A 0.52 0.51 90.0 0 0 237.42 407.19
  L 237.44 433.85
  A 0.71 0.71 0.5 0 1 236.73 434.56
  L 222.04 434.58
  A 0.73 0.71 0.0 0 1 221.31 433.87
  L 221.25 407.07
  A 0.56 0.55 90.0 0 0 220.70 406.51
  L 200.58 406.70
  A 0.53 0.52 90.0 0 0 200.06 407.23
  L 200.25 482.13
  A 0.64 0.61 -89.5 0 0 200.85 482.77
  L 220.61 482.98
  A 0.66 0.64 90.0 0 0 221.25 482.32
  L 221.31 453.80
  A 0.50 0.49 -89.4 0 1 221.81 453.30"
/>
<path stroke="#a7a7a7" vector-effect="non-scaling-stroke" d="
  M 377.30 424.81
  A 0.71 0.70 -90.0 0 1 378.00 425.52
  L 378.00 482.05
  A 0.95 0.94 -90.0 0 0 378.94 483.00
  L 397.06 482.94
  A 0.95 0.94 90.0 0 0 398.00 481.99
  L 398.00 425.42
  A 0.67 0.67 0.0 0 1 398.67 424.75
  L 411.73 424.75
  A 0.52 0.52 0.0 0 0 412.25 424.23
  L 412.25 407.06
  A 0.56 0.56 0.0 0 0 411.69 406.50
  L 364.31 406.50
  A 0.56 0.56 0.0 0 0 363.75 407.06
  L 363.75 424.24
  A 0.52 0.51 0.0 0 0 364.27 424.75
  L 377.30 424.81"
/>
<path stroke="#a7a7a7" vector-effect="non-scaling-stroke" d="
  M 123.21 536.28
  Q 131.69 542.96 141.46 537.87
  Q 147.60 534.67 148.59 527.07
  A 0.51 0.49 -84.6 0 0 148.14 526.50
  L 139.31 526.05
  A 0.62 0.57 -83.1 0 0 138.72 526.55
  Q 138.18 529.16 137.69 529.69
  Q 134.56 533.02 131.76 531.14
  Q 129.93 529.91 129.21 526.83
  Q 127.84 520.91 129.75 515.17
  Q 130.62 512.55 132.38 511.74
  Q 134.89 510.59 137.33 513.20
  Q 138.57 514.53 138.43 516.35
  Q 138.28 518.49 139.86 518.19
  Q 141.05 517.97 141.18 517.96
  Q 144.60 517.77 148.16 517.49
  A 0.52 0.52 -6.8 0 0 148.63 516.90
  Q 146.68 503.28 133.25 503.40
  Q 123.09 503.48 119.34 512.75
  Q 115.93 521.13 118.69 529.77
  Q 119.96 533.72 123.21 536.28"
/>
<path stroke="#a7a7a7" vector-effect="non-scaling-stroke" d="
  M 186.5946 518.8735
  A 15.23 15.23 0.0 0 0 171.5518 503.4586
  L 168.7320 503.4241
  A 15.23 15.23 0.0 0 0 153.3170 518.4669
  L 153.2454 524.3265
  A 15.23 15.23 0.0 0 0 168.2882 539.7414
  L 171.1080 539.7759
  A 15.23 15.23 0.0 0 0 186.5230 524.7331
  L 186.5946 518.8735"
/>
<path stroke="#a7a7a7" vector-effect="non-scaling-stroke" d="
  M 301.41 535.90
  Q 311.01 543.50 320.58 537.18
  Q 320.67 537.12 321.25 536.63
  Q 322.48 535.62 322.74 538.10
  A 1.58 1.57 -3.0 0 0 324.31 539.50
  L 327.88 539.50
  A 0.87 0.87 0.0 0 0 328.75 538.63
  L 328.75 520.35
  A 0.85 0.85 0.0 0 0 327.90 519.50
  L 313.45 519.50
  A 0.91 0.85 -0.3 0 0 312.54 520.36
  L 312.63 526.31
  A 0.59 0.56 90.0 0 0 313.18 526.89
  L 316.95 526.97
  A 1.27 1.19 12.6 0 1 318.12 528.68
  Q 316.65 531.79 313.26 531.39
  Q 309.70 530.98 308.75 528.50
  Q 306.64 523.01 308.50 515.75
  Q 309.10 513.42 310.56 512.20
  Q 312.06 510.94 314.19 511.45
  Q 317.43 512.23 317.89 516.07
  A 0.54 0.50 83.8 0 0 318.44 516.55
  L 327.91 515.61
  A 0.78 0.74 78.3 0 0 328.53 514.61
  Q 324.97 502.80 312.50 503.25
  Q 307.66 503.42 304.08 505.61
  Q 300.84 507.60 298.61 511.94
  Q 293.19 522.52 299.22 533.32
  Q 300.06 534.82 301.41 535.90"
/>
<path stroke="#a7a7a7" vector-effect="non-scaling-stroke" d="
  M 367.47 531.11
  Q 362.50 532.78 358.81 529.19
  Q 356.97 527.39 356.06 527.56
  L 348.23 529.04
  A 0.46 0.45 -14.3 0 0 347.88 529.62
  Q 350.27 537.41 357.97 539.36
  Q 365.39 541.24 372.40 538.34
  Q 378.87 535.67 379.75 529.50
  Q 380.54 523.96 376.85 520.59
  Q 374.89 518.79 370.16 517.41
  Q 366.56 516.37 362.93 515.48
  Q 361.71 515.18 361.18 514.78
  Q 360.06 513.93 360.63 512.76
  Q 361.10 511.80 362.43 511.46
  Q 366.85 510.34 369.47 514.08
  A 0.77 0.60 61.4 0 0 370.23 514.41
  L 378.29 511.95
  A 0.50 0.45 69.2 0 0 378.55 511.28
  Q 376.61 507.00 373.06 505.19
  Q 366.14 501.65 357.95 504.21
  Q 351.90 506.10 350.18 511.32
  Q 348.75 515.64 350.69 519.55
  Q 352.77 523.73 358.00 525.00
  Q 363.68 526.37 367.46 527.65
  A 1.49 1.12 0.5 0 1 368.22 528.23
  Q 368.85 529.36 368.21 530.52
  A 1.45 1.18 0.4 0 1 367.47 531.11"
/>
<path stroke="#a7a7a7" vector-effect="non-scaling-stroke" d="
  M 417.9684 518.9836
  A 15.27 15.27 0.0 0 0 402.9131 503.5019
  L 400.0334 503.4617
  A 15.27 15.27 0.0 0 0 384.5517 518.5170
  L 384.4716 524.2564
  A 15.27 15.27 0.0 0 0 399.5269 539.7381
  L 402.4066 539.7783
  A 15.27 15.27 0.0 0 0 417.8883 524.7230
  L 417.9684 518.9836"
/>
<path stroke="#a7a7a7" vector-effect="non-scaling-stroke" d="
  M 456.7950 519.1560
  A 15.24 15.24 0.0 0 0 441.9865 503.4964
  L 439.1676 503.4177
  A 15.24 15.24 0.0 0 0 423.5080 518.2262
  L 423.3450 524.0640
  A 15.24 15.24 0.0 0 0 438.1535 539.7236
  L 440.9724 539.8023
  A 15.24 15.24 0.0 0 0 456.6320 524.9938
  L 456.7950 519.1560"
/>
<path stroke="#a7a7a7" vector-effect="non-scaling-stroke" d="
  M 201.81 516.04
  Q 201.82 514.35 202.25 515.99
  L 208.29 538.89
  A 0.79 0.74 81.6 0 0 209.03 539.48
  L 215.06 539.36
  A 0.72 0.65 -82.3 0 0 215.69 538.83
  L 221.38 516.22
  Q 221.76 514.73 221.77 516.26
  L 221.98 538.62
  A 0.87 0.83 89.3 0 0 222.82 539.48
  L 231.55 539.45
  A 0.72 0.71 89.6 0 0 232.25 538.73
  L 232.25 504.56
  A 0.81 0.81 0.0 0 0 231.44 503.75
  L 218.23 503.75
  A 0.76 0.76 4.9 0 0 217.48 504.38
  Q 215.85 513.06 212.92 521.52
  Q 212.74 522.02 212.61 521.52
  L 208.05 504.47
  A 0.97 0.93 82.4 0 0 207.14 503.75
  L 193.80 503.81
  A 0.50 0.49 -90.0 0 0 193.31 504.31
  L 193.31 538.69
  A 0.57 0.51 -89.0 0 0 193.80 539.26
  L 201.20 539.47
  A 0.53 0.47 -89.0 0 0 201.69 538.94
  L 201.81 516.04"
/>
<path stroke="#a7a7a7" vector-effect="non-scaling-stroke" d="
  M 251.25 504.06
  A 0.31 0.31 0.0 0 0 250.94 503.75
  L 240.56 503.75
  A 0.31 0.31 0.0 0 0 240.25 504.06
  L 240.25 539.18
  A 0.31 0.31 0.0 0 0 240.56 539.49
  L 250.94 539.49
  A 0.31 0.31 0.0 0 0 251.25 539.18
  L 251.25 504.06"
/>
<path stroke="#a7a7a7" vector-effect="non-scaling-stroke" d="
  M 281.35 521.10
  Q 281.53 522.83 280.61 521.35
  L 270.29 504.87
  A 2.30 2.30 74.2 0 0 268.36 503.79
  L 259.75 503.75
  A 0.50 0.50 0.0 0 0 259.25 504.25
  L 259.25 538.84
  A 0.63 0.60 -90.0 0 0 259.85 539.47
  L 267.57 539.35
  A 0.57 0.52 -88.3 0 0 268.09 538.81
  Q 268.59 528.52 267.79 518.24
  Q 267.75 517.78 267.99 518.18
  L 280.54 539.01
  A 0.90 0.89 74.7 0 0 281.31 539.45
  L 289.20 539.49
  A 0.55 0.54 -89.5 0 0 289.75 538.94
  L 289.75 504.26
  A 0.49 0.46 89.4 0 0 289.28 503.77
  L 281.43 503.90
  A 0.56 0.53 -88.8 0 0 280.91 504.43
  Q 280.50 513.18 281.35 521.10"
/>
<path stroke="#a7a7a7" vector-effect="non-scaling-stroke" d="
  M 472.59 518.60
  Q 477.88 528.44 484.58 538.67
  A 1.86 1.85 -16.7 0 0 486.13 539.50
  L 493.07 539.50
  A 0.92 0.91 -0.3 0 0 493.99 538.58
  L 493.82 504.43
  A 0.54 0.51 -89.5 0 0 493.32 503.89
  L 486.06 503.80
  A 1.10 1.06 89.5 0 0 484.99 504.93
  L 485.42 521.68
  Q 485.43 522.16 485.18 521.76
  L 474.27 504.41
  A 1.01 0.89 72.1 0 0 473.50 503.95
  L 464.05 503.79
  A 0.52 0.48 -89.5 0 0 463.56 504.31
  L 463.50 538.95
  A 0.55 0.55 -0.0 0 0 464.05 539.50
  L 471.75 539.50
  A 0.50 0.50 0.0 0 0 472.25 539.00
  L 472.18 518.70
  Q 472.18 517.83 472.59 518.60"
/>
<path stroke="#a7a7a7" vector-effect="non-scaling-stroke" d="
  M 384.00 126.99
  A 0.50 0.50 0.0 0 0 383.50 126.49
  L 174.00 126.49
  A 0.50 0.50 0.0 0 0 173.50 126.99
  L 173.50 363.93
  A 0.50 0.50 0.0 0 0 174.00 364.43
  L 383.50 364.43
  A 0.50 0.50 0.0 0 0 384.00 363.93
  L 384.00 126.99"
/>
<path stroke="#a7a7a7" vector-effect="non-scaling-stroke" d="
  M 374.44 136.60
  A 0.60 0.60 0.0 0 0 373.84 136.00
  L 183.42 136.00
  A 0.60 0.60 0.0 0 0 182.82 136.60
  L 182.82 326.90
  A 0.60 0.60 0.0 0 0 183.42 327.50
  L 373.84 327.50
  A 0.60 0.60 0.0 0 0 374.44 326.90
  L 374.44 136.60"
/>
<path stroke="#a7a7a7" vector-effect="non-scaling-stroke" d="
  M 310.20 465.57
  Q 312.21 467.10 314.72 466.72
  Q 320.70 465.81 322.13 459.72
  Q 325.48 445.43 322.64 431.02
  Q 321.79 426.74 319.19 424.56
  Q 315.76 421.70 311.89 423.21
  Q 309.82 424.02 308.20 426.03
  Q 306.59 428.03 306.00 430.25
  Q 302.40 443.83 305.63 458.42
  Q 306.61 462.86 310.20 465.57"
/>
<path stroke="#a7a7a7" vector-effect="non-scaling-stroke" d="
  M 457.94 465.56
  Q 463.30 468.60 467.30 464.60
  Q 468.73 463.17 469.60 460.96
  Q 470.41 458.93 470.75 456.75
  Q 472.45 445.86 471.27 434.93
  Q 471.00 432.44 470.46 430.62
  Q 469.70 428.07 468.69 426.56
  Q 465.33 421.58 460.16 423.14
  Q 458.10 423.76 456.55 425.31
  Q 454.89 426.97 454.25 429.00
  Q 450.20 441.82 452.84 455.53
  Q 453.63 459.66 454.17 461.05
  Q 455.36 464.10 457.94 465.56"
/>
<path stroke="#a7a7a7" vector-effect="non-scaling-stroke" d="
  M 154.31 425.43
  Q 152.84 424.32 151.33 424.28
  L 141.94 423.99
  A 0.93 0.90 -89.7 0 0 141.02 424.93
  L 141.16 438.06
  A 0.56 0.56 1.7 0 0 141.68 438.61
  Q 144.33 438.81 149.75 438.50
  Q 155.05 438.19 156.64 433.75
  Q 158.48 428.60 154.31 425.43"
/>
<path stroke="#a7a7a7" vector-effect="non-scaling-stroke" d="
  M 168.36 531.48
  Q 172.37 533.03 173.83 528.73
  Q 176.28 521.52 173.95 514.48
  Q 173.40 512.80 172.30 512.09
  Q 170.80 511.13 169.14 511.60
  Q 167.32 512.12 166.35 513.99
  Q 165.56 515.49 165.19 517.69
  Q 164.25 523.16 165.79 528.65
  Q 166.37 530.70 168.36 531.48"
/>
<path stroke="#a7a7a7" vector-effect="non-scaling-stroke" d="
  M 398.94 531.06
  Q 401.84 532.83 403.89 530.91
  Q 405.16 529.73 405.75 527.09
  Q 406.99 521.51 405.70 515.94
  Q 405.18 513.71 403.98 512.54
  Q 402.03 510.64 399.76 511.81
  Q 397.82 512.80 396.98 515.64
  Q 395.75 519.78 396.22 524.15
  Q 396.56 527.27 396.70 527.85
  Q 397.19 530.00 398.94 531.06"
/>
<path stroke="#a7a7a7" vector-effect="non-scaling-stroke" d="
  M 437.96 531.08
  Q 442.91 533.67 444.36 527.72
  Q 445.92 521.31 444.25 515.12
  Q 443.68 513.02 442.24 512.08
  Q 440.10 510.69 438.14 511.99
  Q 436.43 513.14 435.70 515.98
  Q 434.28 521.51 435.88 528.40
  Q 436.31 530.22 437.96 531.08"
/>
</g>
<path fill="#e7e7e7" d="
  M 0.00 0.00
  L 612.00 0.00
  L 612.00 612.00
  L 0.00 612.00
  L 0.00 0.00
  Z
  M 476.37 95.05
  L 442.72 329.42
  A 0.68 0.67 8.0 0 1 441.95 329.99
  L 404.57 324.62
  A 0.86 0.79 3.7 0 0 403.59 325.41
  L 403.74 332.94
  A 0.66 0.58 4.1 0 0 404.30 333.51
  L 449.58 340.05
  A 0.64 0.62 -82.1 0 0 450.28 339.51
  L 486.51 87.45
  A 0.55 0.54 8.4 0 0 486.04 86.83
  L 261.18 54.49
  A 0.52 0.51 8.2 0 0 260.59 54.93
  L 253.50 104.56
  A 0.48 0.45 -86.1 0 0 253.94 105.10
  L 261.69 105.21
  A 0.59 0.56 -85.4 0 0 262.26 104.70
  L 267.98 65.16
  A 0.55 0.54 -82.0 0 1 268.59 64.69
  L 475.94 94.49
  A 0.50 0.49 8.0 0 1 476.37 95.05
  Z
  M 404.32 287.14
  L 437.54 291.89
  A 1.01 1.00 -82.0 0 0 438.67 291.03
  L 465.69 103.05
  A 0.46 0.45 8.4 0 0 465.31 102.54
  L 276.81 75.63
  A 0.52 0.51 7.9 0 0 276.23 76.06
  L 272.15 104.55
  A 0.62 0.61 4.0 0 0 272.77 105.25
  L 402.63 105.25
  A 0.87 0.87 0.0 0 1 403.50 106.12
  L 403.50 286.19
  A 0.96 0.96 -85.8 0 0 404.32 287.14
  Z
  M 392.92 117.77
  A 0.27 0.27 0.0 0 0 392.65 117.50
  L 164.77 117.50
  A 0.27 0.27 0.0 0 0 164.50 117.77
  L 164.50 372.97
  A 0.27 0.27 0.0 0 0 164.77 373.24
  L 392.65 373.24
  A 0.27 0.27 0.0 0 0 392.92 372.97
  L 392.92 117.77
  Z
  M 295.23 477.75
  Q 300.51 481.99 306.06 483.19
  Q 323.33 486.93 334.83 476.05
  Q 340.08 471.07 343.17 463.87
  Q 346.12 456.98 346.65 449.26
  Q 347.13 442.37 346.00 434.75
  Q 344.10 421.94 334.95 413.31
  Q 326.97 405.78 315.00 405.50
  Q 305.25 405.27 297.88 409.71
  Q 291.44 413.58 287.03 421.15
  Q 282.96 428.13 281.86 436.48
  Q 280.43 447.38 282.90 458.07
  Q 285.67 470.08 295.23 477.75
  Z
  M 443.00 477.73
  Q 450.52 483.69 460.75 484.00
  Q 472.88 484.36 481.59 476.82
  Q 488.58 470.76 491.44 462.69
  Q 496.18 449.28 493.79 434.49
  Q 492.01 423.53 485.94 416.31
  Q 474.58 402.82 455.94 405.97
  Q 443.09 408.14 436.25 418.75
  Q 429.37 429.43 429.05 442.75
  Q 428.87 450.31 430.75 458.25
  Q 433.59 470.25 443.00 477.73
  Z
  M 124.19 482.78
  Q 131.96 483.14 140.61 482.98
  A 0.65 0.65 -0.4 0 0 141.25 482.33
  L 141.25 455.87
  A 0.91 0.91 1.8 0 1 142.22 454.96
  Q 149.38 455.36 155.75 455.03
  Q 163.43 454.63 169.08 450.45
  Q 174.48 446.45 176.90 439.57
  Q 180.09 430.52 176.44 421.06
  Q 173.23 412.77 165.70 409.25
  Q 161.52 407.30 152.50 406.87
  Q 137.05 406.12 120.66 406.53
  A 0.94 0.94 -0.9 0 0 119.75 407.47
  L 119.75 482.05
  A 0.71 0.70 89.2 0 0 120.47 482.76
  Q 122.47 482.70 124.19 482.78
  Z
  M 221.81 453.30
  L 236.81 453.42
  A 0.52 0.49 90.0 0 1 237.30 453.94
  L 237.48 481.81
  A 1.28 1.24 -0.2 0 0 238.76 483.04
  L 257.66 483.02
  A 0.84 0.82 0.0 0 0 258.50 482.20
  L 258.50 407.39
  A 0.88 0.87 -90.0 0 0 257.63 406.51
  L 237.93 406.67
  A 0.52 0.51 90.0 0 0 237.42 407.19
  L 237.44 433.85
  A 0.71 0.71 0.5 0 1 236.73 434.56
  L 222.04 434.58
  A 0.73 0.71 0.0 0 1 221.31 433.87
  L 221.25 407.07
  A 0.56 0.55 90.0 0 0 220.70 406.51
  L 200.58 406.70
  A 0.53 0.52 90.0 0 0 200.06 407.23
  L 200.25 482.13
  A 0.64 0.61 -89.5 0 0 200.85 482.77
  L 220.61 482.98
  A 0.66 0.64 90.0 0 0 221.25 482.32
  L 221.31 453.80
  A 0.50 0.49 -89.4 0 1 221.81 453.30
  Z
  M 377.30 424.81
  A 0.71 0.70 -90.0 0 1 378.00 425.52
  L 378.00 482.05
  A 0.95 0.94 -90.0 0 0 378.94 483.00
  L 397.06 482.94
  A 0.95 0.94 90.0 0 0 398.00 481.99
  L 398.00 425.42
  A 0.67 0.67 0.0 0 1 398.67 424.75
  L 411.73 424.75
  A 0.52 0.52 0.0 0 0 412.25 424.23
  L 412.25 407.06
  A 0.56 0.56 0.0 0 0 411.69 406.50
  L 364.31 406.50
  A 0.56 0.56 0.0 0 0 363.75 407.06
  L 363.75 424.24
  A 0.52 0.51 0.0 0 0 364.27 424.75
  L 377.30 424.81
  Z
  M 123.21 536.28
  Q 131.69 542.96 141.46 537.87
  Q 147.60 534.67 148.59 527.07
  A 0.51 0.49 -84.6 0 0 148.14 526.50
  L 139.31 526.05
  A 0.62 0.57 -83.1 0 0 138.72 526.55
  Q 138.18 529.16 137.69 529.69
  Q 134.56 533.02 131.76 531.14
  Q 129.93 529.91 129.21 526.83
  Q 127.84 520.91 129.75 515.17
  Q 130.62 512.55 132.38 511.74
  Q 134.89 510.59 137.33 513.20
  Q 138.57 514.53 138.43 516.35
  Q 138.28 518.49 139.86 518.19
  Q 141.05 517.97 141.18 517.96
  Q 144.60 517.77 148.16 517.49
  A 0.52 0.52 -6.8 0 0 148.63 516.90
  Q 146.68 503.28 133.25 503.40
  Q 123.09 503.48 119.34 512.75
  Q 115.93 521.13 118.69 529.77
  Q 119.96 533.72 123.21 536.28
  Z
  M 186.5946 518.8735
  A 15.23 15.23 0.0 0 0 171.5518 503.4586
  L 168.7320 503.4241
  A 15.23 15.23 0.0 0 0 153.3170 518.4669
  L 153.2454 524.3265
  A 15.23 15.23 0.0 0 0 168.2882 539.7414
  L 171.1080 539.7759
  A 15.23 15.23 0.0 0 0 186.5230 524.7331
  L 186.5946 518.8735
  Z
  M 301.41 535.90
  Q 311.01 543.50 320.58 537.18
  Q 320.67 537.12 321.25 536.63
  Q 322.48 535.62 322.74 538.10
  A 1.58 1.57 -3.0 0 0 324.31 539.50
  L 327.88 539.50
  A 0.87 0.87 0.0 0 0 328.75 538.63
  L 328.75 520.35
  A 0.85 0.85 0.0 0 0 327.90 519.50
  L 313.45 519.50
  A 0.91 0.85 -0.3 0 0 312.54 520.36
  L 312.63 526.31
  A 0.59 0.56 90.0 0 0 313.18 526.89
  L 316.95 526.97
  A 1.27 1.19 12.6 0 1 318.12 528.68
  Q 316.65 531.79 313.26 531.39
  Q 309.70 530.98 308.75 528.50
  Q 306.64 523.01 308.50 515.75
  Q 309.10 513.42 310.56 512.20
  Q 312.06 510.94 314.19 511.45
  Q 317.43 512.23 317.89 516.07
  A 0.54 0.50 83.8 0 0 318.44 516.55
  L 327.91 515.61
  A 0.78 0.74 78.3 0 0 328.53 514.61
  Q 324.97 502.80 312.50 503.25
  Q 307.66 503.42 304.08 505.61
  Q 300.84 507.60 298.61 511.94
  Q 293.19 522.52 299.22 533.32
  Q 300.06 534.82 301.41 535.90
  Z
  M 367.47 531.11
  Q 362.50 532.78 358.81 529.19
  Q 356.97 527.39 356.06 527.56
  L 348.23 529.04
  A 0.46 0.45 -14.3 0 0 347.88 529.62
  Q 350.27 537.41 357.97 539.36
  Q 365.39 541.24 372.40 538.34
  Q 378.87 535.67 379.75 529.50
  Q 380.54 523.96 376.85 520.59
  Q 374.89 518.79 370.16 517.41
  Q 366.56 516.37 362.93 515.48
  Q 361.71 515.18 361.18 514.78
  Q 360.06 513.93 360.63 512.76
  Q 361.10 511.80 362.43 511.46
  Q 366.85 510.34 369.47 514.08
  A 0.77 0.60 61.4 0 0 370.23 514.41
  L 378.29 511.95
  A 0.50 0.45 69.2 0 0 378.55 511.28
  Q 376.61 507.00 373.06 505.19
  Q 366.14 501.65 357.95 504.21
  Q 351.90 506.10 350.18 511.32
  Q 348.75 515.64 350.69 519.55
  Q 352.77 523.73 358.00 525.00
  Q 363.68 526.37 367.46 527.65
  A 1.49 1.12 0.5 0 1 368.22 528.23
  Q 368.85 529.36 368.21 530.52
  A 1.45 1.18 0.4 0 1 367.47 531.11
  Z
  M 417.9684 518.9836
  A 15.27 15.27 0.0 0 0 402.9131 503.5019
  L 400.0334 503.4617
  A 15.27 15.27 0.0 0 0 384.5517 518.5170
  L 384.4716 524.2564
  A 15.27 15.27 0.0 0 0 399.5269 539.7381
  L 402.4066 539.7783
  A 15.27 15.27 0.0 0 0 417.8883 524.7230
  L 417.9684 518.9836
  Z
  M 456.7950 519.1560
  A 15.24 15.24 0.0 0 0 441.9865 503.4964
  L 439.1676 503.4177
  A 15.24 15.24 0.0 0 0 423.5080 518.2262
  L 423.3450 524.0640
  A 15.24 15.24 0.0 0 0 438.1535 539.7236
  L 440.9724 539.8023
  A 15.24 15.24 0.0 0 0 456.6320 524.9938
  L 456.7950 519.1560
  Z
  M 201.81 516.04
  Q 201.82 514.35 202.25 515.99
  L 208.29 538.89
  A 0.79 0.74 81.6 0 0 209.03 539.48
  L 215.06 539.36
  A 0.72 0.65 -82.3 0 0 215.69 538.83
  L 221.38 516.22
  Q 221.76 514.73 221.77 516.26
  L 221.98 538.62
  A 0.87 0.83 89.3 0 0 222.82 539.48
  L 231.55 539.45
  A 0.72 0.71 89.6 0 0 232.25 538.73
  L 232.25 504.56
  A 0.81 0.81 0.0 0 0 231.44 503.75
  L 218.23 503.75
  A 0.76 0.76 4.9 0 0 217.48 504.38
  Q 215.85 513.06 212.92 521.52
  Q 212.74 522.02 212.61 521.52
  L 208.05 504.47
  A 0.97 0.93 82.4 0 0 207.14 503.75
  L 193.80 503.81
  A 0.50 0.49 -90.0 0 0 193.31 504.31
  L 193.31 538.69
  A 0.57 0.51 -89.0 0 0 193.80 539.26
  L 201.20 539.47
  A 0.53 0.47 -89.0 0 0 201.69 538.94
  L 201.81 516.04
  Z
  M 251.25 504.06
  A 0.31 0.31 0.0 0 0 250.94 503.75
  L 240.56 503.75
  A 0.31 0.31 0.0 0 0 240.25 504.06
  L 240.25 539.18
  A 0.31 0.31 0.0 0 0 240.56 539.49
  L 250.94 539.49
  A 0.31 0.31 0.0 0 0 251.25 539.18
  L 251.25 504.06
  Z
  M 281.35 521.10
  Q 281.53 522.83 280.61 521.35
  L 270.29 504.87
  A 2.30 2.30 74.2 0 0 268.36 503.79
  L 259.75 503.75
  A 0.50 0.50 0.0 0 0 259.25 504.25
  L 259.25 538.84
  A 0.63 0.60 -90.0 0 0 259.85 539.47
  L 267.57 539.35
  A 0.57 0.52 -88.3 0 0 268.09 538.81
  Q 268.59 528.52 267.79 518.24
  Q 267.75 517.78 267.99 518.18
  L 280.54 539.01
  A 0.90 0.89 74.7 0 0 281.31 539.45
  L 289.20 539.49
  A 0.55 0.54 -89.5 0 0 289.75 538.94
  L 289.75 504.26
  A 0.49 0.46 89.4 0 0 289.28 503.77
  L 281.43 503.90
  A 0.56 0.53 -88.8 0 0 280.91 504.43
  Q 280.50 513.18 281.35 521.10
  Z
  M 472.59 518.60
  Q 477.88 528.44 484.58 538.67
  A 1.86 1.85 -16.7 0 0 486.13 539.50
  L 493.07 539.50
  A 0.92 0.91 -0.3 0 0 493.99 538.58
  L 493.82 504.43
  A 0.54 0.51 -89.5 0 0 493.32 503.89
  L 486.06 503.80
  A 1.10 1.06 89.5 0 0 484.99 504.93
  L 485.42 521.68
  Q 485.43 522.16 485.18 521.76
  L 474.27 504.41
  A 1.01 0.89 72.1 0 0 473.50 503.95
  L 464.05 503.79
  A 0.52 0.48 -89.5 0 0 463.56 504.31
  L 463.50 538.95
  A 0.55 0.55 -0.0 0 0 464.05 539.50
  L 471.75 539.50
  A 0.50 0.50 0.0 0 0 472.25 539.00
  L 472.18 518.70
  Q 472.18 517.83 472.59 518.60
  Z"
/>
<path fill="#666666" d="
  M 475.94 94.49
  L 268.59 64.69
  A 0.55 0.54 -82.0 0 0 267.98 65.16
  L 262.26 104.70
  A 0.59 0.56 -85.4 0 1 261.69 105.21
  L 253.94 105.10
  A 0.48 0.45 -86.1 0 1 253.50 104.56
  L 260.59 54.93
  A 0.52 0.51 8.2 0 1 261.18 54.49
  L 486.04 86.83
  A 0.55 0.54 8.4 0 1 486.51 87.45
  L 450.28 339.51
  A 0.64 0.62 -82.1 0 1 449.58 340.05
  L 404.30 333.51
  A 0.66 0.58 4.1 0 1 403.74 332.94
  L 403.59 325.41
  A 0.86 0.79 3.7 0 1 404.57 324.62
  L 441.95 329.99
  A 0.68 0.67 8.0 0 0 442.72 329.42
  L 476.37 95.05
  A 0.50 0.49 8.0 0 0 475.94 94.49
  Z"
/>
<path fill="#666666" d="
  M 404.32 287.14
  A 0.96 0.96 -85.8 0 1 403.50 286.19
  L 403.50 106.12
  A 0.87 0.87 0.0 0 0 402.63 105.25
  L 272.77 105.25
  A 0.62 0.61 4.0 0 1 272.15 104.55
  L 276.23 76.06
  A 0.52 0.51 7.9 0 1 276.81 75.63
  L 465.31 102.54
  A 0.46 0.45 8.4 0 1 465.69 103.05
  L 438.67 291.03
  A 1.01 1.00 -82.0 0 1 437.54 291.89
  L 404.32 287.14
  Z"
/>
<path fill="#666666" d="
  M 392.92 372.97
  A 0.27 0.27 0.0 0 1 392.65 373.24
  L 164.77 373.24
  A 0.27 0.27 0.0 0 1 164.50 372.97
  L 164.50 117.77
  A 0.27 0.27 0.0 0 1 164.77 117.50
  L 392.65 117.50
  A 0.27 0.27 0.0 0 1 392.92 117.77
  L 392.92 372.97
  Z
  M 384.00 126.99
  A 0.50 0.50 0.0 0 0 383.50 126.49
  L 174.00 126.49
  A 0.50 0.50 0.0 0 0 173.50 126.99
  L 173.50 363.93
  A 0.50 0.50 0.0 0 0 174.00 364.43
  L 383.50 364.43
  A 0.50 0.50 0.0 0 0 384.00 363.93
  L 384.00 126.99
  Z"
/>
<path fill="#e7e7e7" d="
  M 384.00 363.93
  A 0.50 0.50 0.0 0 1 383.50 364.43
  L 174.00 364.43
  A 0.50 0.50 0.0 0 1 173.50 363.93
  L 173.50 126.99
  A 0.50 0.50 0.0 0 1 174.00 126.49
  L 383.50 126.49
  A 0.50 0.50 0.0 0 1 384.00 126.99
  L 384.00 363.93
  Z
  M 374.44 136.60
  A 0.60 0.60 0.0 0 0 373.84 136.00
  L 183.42 136.00
  A 0.60 0.60 0.0 0 0 182.82 136.60
  L 182.82 326.90
  A 0.60 0.60 0.0 0 0 183.42 327.50
  L 373.84 327.50
  A 0.60 0.60 0.0 0 0 374.44 326.90
  L 374.44 136.60
  Z"
/>
<rect fill="#666666" x="182.82" y="136.00" width="191.62" height="191.50" rx="0.60"/>
<path fill="#666666" d="
  M 295.23 477.75
  Q 285.67 470.08 282.90 458.07
  Q 280.43 447.38 281.86 436.48
  Q 282.96 428.13 287.03 421.15
  Q 291.44 413.58 297.88 409.71
  Q 305.25 405.27 315.00 405.50
  Q 326.97 405.78 334.95 413.31
  Q 344.10 421.94 346.00 434.75
  Q 347.13 442.37 346.65 449.26
  Q 346.12 456.98 343.17 463.87
  Q 340.08 471.07 334.83 476.05
  Q 323.33 486.93 306.06 483.19
  Q 300.51 481.99 295.23 477.75
  Z
  M 310.20 465.57
  Q 312.21 467.10 314.72 466.72
  Q 320.70 465.81 322.13 459.72
  Q 325.48 445.43 322.64 431.02
  Q 321.79 426.74 319.19 424.56
  Q 315.76 421.70 311.89 423.21
  Q 309.82 424.02 308.20 426.03
  Q 306.59 428.03 306.00 430.25
  Q 302.40 443.83 305.63 458.42
  Q 306.61 462.86 310.20 465.57
  Z"
/>
<path fill="#666666" d="
  M 443.00 477.73
  Q 433.59 470.25 430.75 458.25
  Q 428.87 450.31 429.05 442.75
  Q 429.37 429.43 436.25 418.75
  Q 443.09 408.14 455.94 405.97
  Q 474.58 402.82 485.94 416.31
  Q 492.01 423.53 493.79 434.49
  Q 496.18 449.28 491.44 462.69
  Q 488.58 470.76 481.59 476.82
  Q 472.88 484.36 460.75 484.00
  Q 450.52 483.69 443.00 477.73
  Z
  M 457.94 465.56
  Q 463.30 468.60 467.30 464.60
  Q 468.73 463.17 469.60 460.96
  Q 470.41 458.93 470.75 456.75
  Q 472.45 445.86 471.27 434.93
  Q 471.00 432.44 470.46 430.62
  Q 469.70 428.07 468.69 426.56
  Q 465.33 421.58 460.16 423.14
  Q 458.10 423.76 456.55 425.31
  Q 454.89 426.97 454.25 429.00
  Q 450.20 441.82 452.84 455.53
  Q 453.63 459.66 454.17 461.05
  Q 455.36 464.10 457.94 465.56
  Z"
/>
<path fill="#666666" d="
  M 124.19 482.78
  Q 122.47 482.70 120.47 482.76
  A 0.71 0.70 89.2 0 1 119.75 482.05
  L 119.75 407.47
  A 0.94 0.94 -0.9 0 1 120.66 406.53
  Q 137.05 406.12 152.50 406.87
  Q 161.52 407.30 165.70 409.25
  Q 173.23 412.77 176.44 421.06
  Q 180.09 430.52 176.90 439.57
  Q 174.48 446.45 169.08 450.45
  Q 163.43 454.63 155.75 455.03
  Q 149.38 455.36 142.22 454.96
  A 0.91 0.91 1.8 0 0 141.25 455.87
  L 141.25 482.33
  A 0.65 0.65 -0.4 0 1 140.61 482.98
  Q 131.96 483.14 124.19 482.78
  Z
  M 154.31 425.43
  Q 152.84 424.32 151.33 424.28
  L 141.94 423.99
  A 0.93 0.90 -89.7 0 0 141.02 424.93
  L 141.16 438.06
  A 0.56 0.56 1.7 0 0 141.68 438.61
  Q 144.33 438.81 149.75 438.50
  Q 155.05 438.19 156.64 433.75
  Q 158.48 428.60 154.31 425.43
  Z"
/>
<path fill="#666666" d="
  M 221.31 453.80
  L 221.25 482.32
  A 0.66 0.64 -90.0 0 1 220.61 482.98
  L 200.85 482.77
  A 0.64 0.61 -89.5 0 1 200.25 482.13
  L 200.06 407.23
  A 0.53 0.52 90.0 0 1 200.58 406.70
  L 220.70 406.51
  A 0.56 0.55 90.0 0 1 221.25 407.07
  L 221.31 433.87
  A 0.73 0.71 0.0 0 0 222.04 434.58
  L 236.73 434.56
  A 0.71 0.71 0.2 0 0 237.44 433.85
  L 237.42 407.19
  A 0.52 0.51 90.0 0 1 237.93 406.67
  L 257.63 406.51
  A 0.88 0.87 90.0 0 1 258.50 407.39
  L 258.50 482.20
  A 0.84 0.82 -0.0 0 1 257.66 483.02
  L 238.76 483.04
  A 1.28 1.24 -0.2 0 1 237.48 481.81
  L 237.30 453.94
  A 0.52 0.49 90.0 0 0 236.81 453.42
  L 221.81 453.30
  A 0.50 0.49 -89.4 0 0 221.31 453.80
  Z"
/>
<path fill="#666666" d="
  M 377.30 424.81
  L 364.27 424.75
  A 0.52 0.51 -0.0 0 1 363.75 424.24
  L 363.75 407.06
  A 0.56 0.56 0.0 0 1 364.31 406.50
  L 411.69 406.50
  A 0.56 0.56 0.0 0 1 412.25 407.06
  L 412.25 424.23
  A 0.52 0.52 0.0 0 1 411.73 424.75
  L 398.67 424.75
  A 0.67 0.67 0.0 0 0 398.00 425.42
  L 398.00 481.99
  A 0.95 0.94 90.0 0 1 397.06 482.94
  L 378.94 483.00
  A 0.95 0.94 -90.0 0 1 378.00 482.05
  L 378.00 425.52
  A 0.71 0.70 90.0 0 0 377.30 424.81
  Z"
/>
<path fill="#e7e7e7" d="
  M 310.20 465.57
  Q 306.61 462.86 305.63 458.42
  Q 302.40 443.83 306.00 430.25
  Q 306.59 428.03 308.20 426.03
  Q 309.82 424.02 311.89 423.21
  Q 315.76 421.70 319.19 424.56
  Q 321.79 426.74 322.64 431.02
  Q 325.48 445.43 322.13 459.72
  Q 320.70 465.81 314.72 466.72
  Q 312.21 467.10 310.20 465.57
  Z"
/>
<path fill="#e7e7e7" d="
  M 457.94 465.56
  Q 455.36 464.10 454.17 461.05
  Q 453.63 459.66 452.84 455.53
  Q 450.20 441.82 454.25 429.00
  Q 454.89 426.97 456.55 425.31
  Q 458.10 423.76 460.16 423.14
  Q 465.33 421.58 468.69 426.56
  Q 469.70 428.07 470.46 430.62
  Q 471.00 432.44 471.27 434.93
  Q 472.45 445.86 470.75 456.75
  Q 470.41 458.93 469.60 460.96
  Q 468.73 463.17 467.30 464.60
  Q 463.30 468.60 457.94 465.56
  Z"
/>
<path fill="#e7e7e7" d="
  M 154.31 425.43
  Q 158.48 428.60 156.64 433.75
  Q 155.05 438.19 149.75 438.50
  Q 144.33 438.81 141.68 438.61
  A 0.56 0.56 1.7 0 1 141.16 438.06
  L 141.02 424.93
  A 0.93 0.90 -89.7 0 1 141.94 423.99
  L 151.33 424.28
  Q 152.84 424.32 154.31 425.43
  Z"
/>
<path fill="#666666" d="
  M 123.21 536.28
  Q 119.96 533.72 118.69 529.77
  Q 115.93 521.13 119.34 512.75
  Q 123.09 503.48 133.25 503.40
  Q 146.68 503.28 148.63 516.90
  A 0.52 0.52 -6.8 0 1 148.16 517.49
  Q 144.60 517.77 141.18 517.96
  Q 141.05 517.97 139.86 518.19
  Q 138.28 518.49 138.43 516.35
  Q 138.57 514.53 137.33 513.20
  Q 134.89 510.59 132.38 511.74
  Q 130.62 512.55 129.75 515.17
  Q 127.84 520.91 129.21 526.83
  Q 129.93 529.91 131.76 531.14
  Q 134.56 533.02 137.69 529.69
  Q 138.18 529.16 138.72 526.55
  A 0.62 0.57 -83.1 0 1 139.31 526.05
  L 148.14 526.50
  A 0.51 0.49 -84.6 0 1 148.59 527.07
  Q 147.60 534.67 141.46 537.87
  Q 131.69 542.96 123.21 536.28
  Z"
/>
<path fill="#666666" d="
  M 186.5230 524.7331
  A 15.23 15.23 0.0 0 1 171.1080 539.7759
  L 168.2882 539.7414
  A 15.23 15.23 0.0 0 1 153.2454 524.3265
  L 153.3170 518.4669
  A 15.23 15.23 0.0 0 1 168.7320 503.4241
  L 171.5518 503.4586
  A 15.23 15.23 0.0 0 1 186.5946 518.8735
  L 186.5230 524.7331
  Z
  M 168.36 531.48
  Q 172.37 533.03 173.83 528.73
  Q 176.28 521.52 173.95 514.48
  Q 173.40 512.80 172.30 512.09
  Q 170.80 511.13 169.14 511.60
  Q 167.32 512.12 166.35 513.99
  Q 165.56 515.49 165.19 517.69
  Q 164.25 523.16 165.79 528.65
  Q 166.37 530.70 168.36 531.48
  Z"
/>
<path fill="#666666" d="
  M 301.41 535.90
  Q 300.06 534.82 299.22 533.32
  Q 293.19 522.52 298.61 511.94
  Q 300.84 507.60 304.08 505.61
  Q 307.66 503.42 312.50 503.25
  Q 324.97 502.80 328.53 514.61
  A 0.78 0.74 78.3 0 1 327.91 515.61
  L 318.44 516.55
  A 0.54 0.50 83.8 0 1 317.89 516.07
  Q 317.43 512.23 314.19 511.45
  Q 312.06 510.94 310.56 512.20
  Q 309.10 513.42 308.50 515.75
  Q 306.64 523.01 308.75 528.50
  Q 309.70 530.98 313.26 531.39
  Q 316.65 531.79 318.12 528.68
  A 1.27 1.19 12.6 0 0 316.95 526.97
  L 313.18 526.89
  A 0.59 0.56 90.0 0 1 312.63 526.31
  L 312.54 520.36
  A 0.91 0.85 -0.3 0 1 313.45 519.50
  L 327.90 519.50
  A 0.85 0.85 0.0 0 1 328.75 520.35
  L 328.75 538.63
  A 0.87 0.87 0.0 0 1 327.88 539.50
  L 324.31 539.50
  A 1.58 1.57 -3.0 0 1 322.74 538.10
  Q 322.48 535.62 321.25 536.63
  Q 320.67 537.12 320.58 537.18
  Q 311.01 543.50 301.41 535.90
  Z"
/>
<path fill="#666666" d="
  M 368.21 530.52
  Q 368.85 529.36 368.22 528.23
  A 1.49 1.12 0.5 0 0 367.46 527.65
  Q 363.68 526.37 358.00 525.00
  Q 352.77 523.73 350.69 519.55
  Q 348.75 515.64 350.18 511.32
  Q 351.90 506.10 357.95 504.21
  Q 366.14 501.65 373.06 505.19
  Q 376.61 507.00 378.55 511.28
  A 0.50 0.45 69.2 0 1 378.29 511.95
  L 370.23 514.41
  A 0.77 0.60 61.4 0 1 369.47 514.08
  Q 366.85 510.34 362.43 511.46
  Q 361.10 511.80 360.63 512.76
  Q 360.06 513.93 361.18 514.78
  Q 361.71 515.18 362.93 515.48
  Q 366.56 516.37 370.16 517.41
  Q 374.89 518.79 376.85 520.59
  Q 380.54 523.96 379.75 529.50
  Q 378.87 535.67 372.40 538.34
  Q 365.39 541.24 357.97 539.36
  Q 350.27 537.41 347.88 529.62
  A 0.46 0.45 -14.3 0 1 348.23 529.04
  L 356.06 527.56
  Q 356.97 527.39 358.81 529.19
  Q 362.50 532.78 367.47 531.11
  A 1.45 1.18 0.4 0 0 368.21 530.52
  Z"
/>
<path fill="#666666" d="
  M 417.8883 524.7230
  A 15.27 15.27 0.0 0 1 402.4066 539.7783
  L 399.5269 539.7381
  A 15.27 15.27 0.0 0 1 384.4716 524.2564
  L 384.5517 518.5170
  A 15.27 15.27 0.0 0 1 400.0334 503.4617
  L 402.9131 503.5019
  A 15.27 15.27 0.0 0 1 417.9684 518.9836
  L 417.8883 524.7230
  Z
  M 398.94 531.06
  Q 401.84 532.83 403.89 530.91
  Q 405.16 529.73 405.75 527.09
  Q 406.99 521.51 405.70 515.94
  Q 405.18 513.71 403.98 512.54
  Q 402.03 510.64 399.76 511.81
  Q 397.82 512.80 396.98 515.64
  Q 395.75 519.78 396.22 524.15
  Q 396.56 527.27 396.70 527.85
  Q 397.19 530.00 398.94 531.06
  Z"
/>
<path fill="#666666" d="
  M 456.6320 524.9938
  A 15.24 15.24 0.0 0 1 440.9724 539.8023
  L 438.1535 539.7236
  A 15.24 15.24 0.0 0 1 423.3450 524.0640
  L 423.5080 518.2262
  A 15.24 15.24 0.0 0 1 439.1676 503.4177
  L 441.9865 503.4964
  A 15.24 15.24 0.0 0 1 456.7950 519.1560
  L 456.6320 524.9938
  Z
  M 437.96 531.08
  Q 442.91 533.67 444.36 527.72
  Q 445.92 521.31 444.25 515.12
  Q 443.68 513.02 442.24 512.08
  Q 440.10 510.69 438.14 511.99
  Q 436.43 513.14 435.70 515.98
  Q 434.28 521.51 435.88 528.40
  Q 436.31 530.22 437.96 531.08
  Z"
/>
<path fill="#666666" d="
  M 201.81 516.04
  L 201.69 538.94
  A 0.53 0.47 -89.0 0 1 201.20 539.47
  L 193.80 539.26
  A 0.57 0.51 -89.0 0 1 193.31 538.69
  L 193.31 504.31
  A 0.50 0.49 -90.0 0 1 193.80 503.81
  L 207.14 503.75
  A 0.97 0.93 82.4 0 1 208.05 504.47
  L 212.61 521.52
  Q 212.74 522.02 212.92 521.52
  Q 215.85 513.06 217.48 504.38
  A 0.76 0.76 4.9 0 1 218.23 503.75
  L 231.44 503.75
  A 0.81 0.81 0.0 0 1 232.25 504.56
  L 232.25 538.73
  A 0.72 0.71 89.6 0 1 231.55 539.45
  L 222.82 539.48
  A 0.87 0.83 89.3 0 1 221.98 538.62
  L 221.77 516.26
  Q 221.76 514.73 221.38 516.22
  L 215.69 538.83
  A 0.72 0.65 -82.3 0 1 215.06 539.36
  L 209.03 539.48
  A 0.79 0.74 81.6 0 1 208.29 538.89
  L 202.25 515.99
  Q 201.82 514.35 201.81 516.04
  Z"
/>
<rect fill="#666666" x="240.25" y="503.75" width="11.00" height="35.74" rx="0.31"/>
<path fill="#666666" d="
  M 281.35 521.10
  Q 280.50 513.18 280.91 504.43
  A 0.56 0.53 -88.8 0 1 281.43 503.90
  L 289.28 503.77
  A 0.49 0.46 89.4 0 1 289.75 504.26
  L 289.75 538.94
  A 0.55 0.54 -89.5 0 1 289.20 539.49
  L 281.31 539.45
  A 0.90 0.89 74.7 0 1 280.54 539.01
  L 267.99 518.18
  Q 267.75 517.78 267.79 518.24
  Q 268.59 528.52 268.09 538.81
  A 0.57 0.52 -88.3 0 1 267.57 539.35
  L 259.85 539.47
  A 0.63 0.60 -90.0 0 1 259.25 538.84
  L 259.25 504.25
  A 0.50 0.50 0.0 0 1 259.75 503.75
  L 268.36 503.79
  A 2.30 2.30 74.2 0 1 270.29 504.87
  L 280.61 521.35
  Q 281.53 522.83 281.35 521.10
  Z"
/>
<path fill="#666666" d="
  M 472.59 518.60
  Q 472.18 517.83 472.18 518.70
  L 472.25 539.00
  A 0.50 0.50 0.0 0 1 471.75 539.50
  L 464.05 539.50
  A 0.55 0.55 -0.1 0 1 463.50 538.95
  L 463.56 504.31
  A 0.52 0.48 -89.5 0 1 464.05 503.79
  L 473.50 503.95
  A 1.01 0.89 72.1 0 1 474.27 504.41
  L 485.18 521.76
  Q 485.43 522.16 485.42 521.68
  L 484.99 504.93
  A 1.10 1.06 89.5 0 1 486.06 503.80
  L 493.32 503.89
  A 0.54 0.51 -89.5 0 1 493.82 504.43
  L 493.99 538.58
  A 0.92 0.91 -0.3 0 1 493.07 539.50
  L 486.13 539.50
  A 1.86 1.85 -16.7 0 1 484.58 538.67
  Q 477.88 528.44 472.59 518.60
  Z"
/>
<path fill="#e7e7e7" d="
  M 168.36 531.48
  Q 166.37 530.70 165.79 528.65
  Q 164.25 523.16 165.19 517.69
  Q 165.56 515.49 166.35 513.99
  Q 167.32 512.12 169.14 511.60
  Q 170.80 511.13 172.30 512.09
  Q 173.40 512.80 173.95 514.48
  Q 176.28 521.52 173.83 528.73
  Q 172.37 533.03 168.36 531.48
  Z"
/>
<path fill="#e7e7e7" d="
  M 398.94 531.06
  Q 397.19 530.00 396.70 527.85
  Q 396.56 527.27 396.22 524.15
  Q 395.75 519.78 396.98 515.64
  Q 397.82 512.80 399.76 511.81
  Q 402.03 510.64 403.98 512.54
  Q 405.18 513.71 405.70 515.94
  Q 406.99 521.51 405.75 527.09
  Q 405.16 529.73 403.89 530.91
  Q 401.84 532.83 398.94 531.06
  Z"
/>
<path fill="#e7e7e7" d="
  M 437.96 531.08
  Q 436.31 530.22 435.88 528.40
  Q 434.28 521.51 435.70 515.98
  Q 436.43 513.14 438.14 511.99
  Q 440.10 510.69 442.24 512.08
  Q 443.68 513.02 444.25 515.12
  Q 445.92 521.31 444.36 527.72
  Q 442.91 533.67 437.96 531.08
  Z"
/>
</svg>
