<?xml version="1.0" encoding="UTF-8"?>
<svg xmlns="http://www.w3.org/2000/svg" xmlns:xlink="http://www.w3.org/1999/xlink" width="16px" height="16px" viewBox="0 0 16 16" version="1.1">
<g id="surface1">
<path style=" stroke:none;fill-rule:nonzero;fill:rgb(0.784314%,16.470588%,35.686275%);fill-opacity:1;" d="M 5.109375 10.101562 C 5.082031 10.171875 5.054688 10.25 5.023438 10.335938 C 5.003906 10.394531 4.9375 10.472656 4.828125 10.570312 C 4.746094 10.636719 4.648438 10.675781 4.535156 10.683594 C 4.464844 10.683594 4.40625 10.671875 4.363281 10.644531 C 4.308594 10.609375 4.269531 10.5625 4.246094 10.496094 C 4.230469 10.453125 4.203125 10.441406 4.164062 10.464844 C 4.011719 10.550781 3.847656 10.609375 3.671875 10.640625 C 3.601562 10.652344 3.542969 10.632812 3.496094 10.582031 C 3.371094 10.453125 3.351562 10.304688 3.429688 10.140625 C 3.460938 10.082031 3.527344 9.988281 3.628906 9.863281 C 3.636719 9.855469 3.640625 9.84375 3.640625 9.835938 C 3.644531 9.808594 3.636719 9.78125 3.621094 9.761719 C 3.609375 9.742188 3.59375 9.722656 3.578125 9.699219 C 3.554688 9.660156 3.515625 9.65625 3.46875 9.695312 C 3.414062 9.734375 3.359375 9.769531 3.300781 9.804688 C 3.226562 9.851562 3.121094 9.878906 2.992188 9.890625 C 2.878906 9.898438 2.796875 9.855469 2.738281 9.761719 C 2.703125 9.703125 2.671875 9.644531 2.648438 9.585938 C 2.636719 9.554688 2.613281 9.53125 2.578125 9.523438 C 2.507812 9.503906 2.433594 9.492188 2.359375 9.484375 C 2.316406 9.480469 2.277344 9.46875 2.242188 9.453125 C 2.207031 9.433594 2.175781 9.410156 2.152344 9.371094 C 2.109375 9.308594 2.082031 9.242188 2.070312 9.164062 C 2.058594 9.078125 2.078125 9.007812 2.136719 8.949219 C 2.195312 8.890625 2.269531 8.847656 2.351562 8.824219 C 2.394531 8.8125 2.421875 8.785156 2.433594 8.738281 C 2.445312 8.703125 2.429688 8.679688 2.394531 8.671875 C 2.375 8.671875 2.355469 8.675781 2.328125 8.6875 C 2.257812 8.71875 2.167969 8.738281 2.054688 8.742188 C 1.980469 8.746094 1.921875 8.734375 1.871094 8.707031 C 1.820312 8.683594 1.777344 8.644531 1.738281 8.589844 C 1.683594 8.515625 1.679688 8.433594 1.71875 8.34375 C 1.738281 8.292969 1.726562 8.257812 1.679688 8.234375 C 1.589844 8.1875 1.511719 8.136719 1.441406 8.082031 C 1.355469 8.015625 1.316406 7.929688 1.316406 7.820312 C 1.320312 7.6875 1.371094 7.589844 1.46875 7.515625 C 1.523438 7.480469 1.589844 7.464844 1.664062 7.476562 C 1.714844 7.484375 1.785156 7.484375 1.882812 7.480469 C 1.894531 7.480469 1.902344 7.472656 1.902344 7.464844 C 1.90625 7.410156 1.910156 7.355469 1.917969 7.296875 C 1.921875 7.25 1.933594 7.210938 1.960938 7.179688 C 1.996094 7.140625 2.03125 7.113281 2.070312 7.109375 C 2.265625 7.082031 2.433594 7.132812 2.574219 7.257812 C 2.609375 7.289062 2.640625 7.285156 2.667969 7.253906 C 2.730469 7.183594 2.804688 7.140625 2.894531 7.121094 C 2.949219 7.109375 3 7.082031 3.039062 7.039062 C 3.085938 6.980469 3.074219 6.957031 3 6.96875 C 2.902344 6.988281 2.800781 7.015625 2.707031 7.050781 C 2.640625 7.074219 2.570312 7.085938 2.5 7.085938 C 2.425781 7.082031 2.371094 7.050781 2.328125 6.988281 C 2.261719 6.894531 2.246094 6.789062 2.273438 6.671875 C 2.277344 6.664062 2.273438 6.652344 2.269531 6.648438 C 2.234375 6.613281 2.195312 6.582031 2.152344 6.558594 C 2.085938 6.523438 2.046875 6.5 2.03125 6.484375 C 1.875 6.351562 1.839844 6.175781 1.917969 5.960938 C 1.960938 5.84375 2.046875 5.777344 2.171875 5.761719 C 2.230469 5.753906 2.28125 5.746094 2.324219 5.738281 C 2.34375 5.734375 2.355469 5.722656 2.359375 5.703125 C 2.402344 5.554688 2.46875 5.460938 2.5625 5.421875 C 2.644531 5.386719 2.746094 5.390625 2.855469 5.429688 C 2.890625 5.441406 2.917969 5.445312 2.929688 5.441406 C 2.957031 5.433594 2.976562 5.414062 2.992188 5.382812 C 3.003906 5.363281 2.996094 5.339844 2.976562 5.324219 C 2.917969 5.289062 2.863281 5.253906 2.8125 5.21875 C 2.742188 5.167969 2.6875 5.105469 2.652344 5.035156 C 2.613281 4.957031 2.605469 4.878906 2.628906 4.804688 C 2.664062 4.710938 2.730469 4.640625 2.835938 4.589844 C 2.847656 4.585938 2.859375 4.570312 2.859375 4.554688 C 2.859375 4.457031 2.859375 4.363281 2.859375 4.269531 C 2.859375 4.160156 2.871094 4.082031 2.894531 4.035156 C 2.933594 3.957031 3 3.90625 3.089844 3.871094 C 3.160156 3.847656 3.230469 3.851562 3.296875 3.882812 C 3.378906 3.925781 3.441406 3.972656 3.488281 4.035156 C 3.492188 4.042969 3.503906 4.046875 3.515625 4.046875 C 3.527344 4.046875 3.539062 4.039062 3.542969 4.03125 C 3.570312 3.992188 3.597656 3.953125 3.628906 3.917969 C 3.664062 3.882812 3.703125 3.859375 3.75 3.851562 C 3.914062 3.824219 4.019531 3.894531 4.070312 4.066406 C 4.097656 4.160156 4.125 4.257812 4.152344 4.351562 C 4.15625 4.355469 4.15625 4.355469 4.160156 4.359375 C 4.164062 4.359375 4.167969 4.359375 4.171875 4.359375 C 4.195312 4.34375 4.21875 4.332031 4.242188 4.320312 C 4.269531 4.300781 4.292969 4.292969 4.3125 4.289062 C 4.375 4.28125 4.433594 4.300781 4.484375 4.34375 C 4.527344 4.386719 4.5625 4.4375 4.589844 4.488281 C 4.601562 4.515625 4.613281 4.574219 4.628906 4.65625 C 4.636719 4.71875 4.652344 4.777344 4.667969 4.835938 C 4.671875 4.847656 4.675781 4.847656 4.679688 4.835938 C 4.703125 4.789062 4.71875 4.738281 4.734375 4.6875 C 4.734375 4.683594 4.742188 4.660156 4.761719 4.613281 C 4.777344 4.570312 4.769531 4.535156 4.742188 4.5 C 4.644531 4.390625 4.582031 4.28125 4.546875 4.171875 C 4.535156 4.121094 4.535156 4.070312 4.546875 4.011719 C 4.558594 3.964844 4.582031 3.917969 4.617188 3.878906 C 4.679688 3.804688 4.757812 3.757812 4.847656 3.730469 C 4.925781 3.707031 5.011719 3.710938 5.105469 3.738281 C 5.191406 3.761719 5.273438 3.796875 5.351562 3.84375 C 5.425781 3.886719 5.476562 3.914062 5.5 3.914062 C 5.535156 3.917969 5.566406 3.90625 5.59375 3.878906 C 5.597656 3.875 5.601562 3.863281 5.601562 3.851562 C 5.597656 3.84375 5.59375 3.835938 5.585938 3.832031 C 5.550781 3.8125 5.515625 3.800781 5.476562 3.789062 C 5.3125 3.746094 5.195312 3.664062 5.125 3.539062 C 5.050781 3.402344 5.058594 3.273438 5.148438 3.144531 C 5.179688 3.097656 5.21875 3.054688 5.261719 3.015625 C 5.273438 3.003906 5.277344 2.988281 5.273438 2.972656 C 5.238281 2.878906 5.207031 2.789062 5.179688 2.695312 C 5.15625 2.605469 5.152344 2.515625 5.175781 2.433594 C 5.195312 2.351562 5.242188 2.28125 5.316406 2.230469 C 5.472656 2.117188 5.65625 2.109375 5.863281 2.207031 C 5.867188 2.207031 5.875 2.207031 5.878906 2.207031 C 5.882812 2.203125 5.886719 2.203125 5.886719 2.195312 C 5.9375 2.058594 6.03125 1.96875 6.164062 1.925781 C 6.171875 1.921875 6.175781 1.914062 6.171875 1.90625 C 6.121094 1.710938 6.09375 1.585938 6.085938 1.53125 C 6.082031 1.507812 6.089844 1.46875 6.101562 1.417969 C 6.113281 1.378906 6.128906 1.34375 6.152344 1.316406 C 6.253906 1.1875 6.378906 1.15625 6.523438 1.214844 C 6.570312 1.230469 6.632812 1.273438 6.714844 1.335938 C 6.777344 1.382812 6.835938 1.433594 6.890625 1.476562 C 6.910156 1.492188 6.9375 1.5 6.960938 1.492188 C 7.144531 1.445312 7.28125 1.492188 7.375 1.628906 C 7.398438 1.667969 7.417969 1.714844 7.429688 1.773438 C 7.441406 1.820312 7.449219 1.871094 7.457031 1.925781 C 7.460938 1.988281 7.496094 2.019531 7.554688 2.027344 C 7.644531 2.035156 7.699219 2.09375 7.71875 2.203125 C 7.757812 2.4375 7.753906 2.671875 7.707031 2.902344 C 7.703125 2.917969 7.703125 2.929688 7.703125 2.941406 C 7.703125 2.988281 7.722656 2.988281 7.757812 2.9375 C 7.808594 2.863281 7.871094 2.808594 7.945312 2.773438 C 8.011719 2.742188 8.023438 2.695312 7.988281 2.625 C 7.929688 2.515625 7.890625 2.398438 7.867188 2.273438 C 7.84375 2.144531 7.886719 2.042969 7.992188 1.972656 C 8.074219 1.921875 8.164062 1.90625 8.269531 1.933594 C 8.308594 1.941406 8.335938 1.925781 8.347656 1.886719 C 8.363281 1.84375 8.371094 1.804688 8.382812 1.769531 C 8.402344 1.683594 8.441406 1.605469 8.492188 1.539062 C 8.550781 1.460938 8.617188 1.410156 8.691406 1.390625 C 8.78125 1.363281 8.875 1.378906 8.964844 1.4375 C 9.097656 1.523438 9.230469 1.597656 9.375 1.667969 C 9.382812 1.671875 9.394531 1.667969 9.40625 1.660156 C 9.472656 1.605469 9.535156 1.542969 9.59375 1.476562 C 9.621094 1.453125 9.65625 1.429688 9.695312 1.40625 C 9.730469 1.390625 9.765625 1.382812 9.8125 1.382812 C 9.851562 1.382812 9.894531 1.382812 9.933594 1.382812 C 9.980469 1.382812 10.019531 1.386719 10.050781 1.398438 C 10.144531 1.4375 10.195312 1.515625 10.203125 1.632812 C 10.210938 1.722656 10.21875 1.808594 10.234375 1.890625 C 10.238281 1.914062 10.257812 1.933594 10.277344 1.945312 C 10.386719 1.988281 10.464844 2.058594 10.519531 2.15625 C 10.546875 2.210938 10.5625 2.265625 10.5625 2.324219 C 10.5625 2.386719 10.546875 2.445312 10.515625 2.5 C 10.46875 2.574219 10.417969 2.640625 10.359375 2.699219 C 10.351562 2.707031 10.347656 2.722656 10.347656 2.734375 L 10.382812 3.058594 C 10.386719 3.070312 10.394531 3.082031 10.402344 3.085938 C 10.414062 3.089844 10.425781 3.089844 10.433594 3.085938 C 10.5 3.039062 10.5625 2.992188 10.625 2.945312 C 10.691406 2.886719 10.777344 2.855469 10.875 2.847656 C 10.96875 2.839844 11.054688 2.859375 11.128906 2.902344 C 11.222656 2.953125 11.285156 3.03125 11.324219 3.128906 C 11.351562 3.210938 11.351562 3.289062 11.320312 3.367188 C 11.285156 3.457031 11.230469 3.539062 11.148438 3.621094 C 11.132812 3.636719 11.125 3.65625 11.125 3.679688 C 11.125 3.757812 11.152344 3.773438 11.207031 3.726562 C 11.214844 3.71875 11.230469 3.699219 11.253906 3.671875 C 11.320312 3.589844 11.402344 3.527344 11.496094 3.480469 C 11.558594 3.445312 11.625 3.449219 11.683594 3.496094 C 11.730469 3.527344 11.777344 3.558594 11.828125 3.585938 C 11.835938 3.589844 11.847656 3.585938 11.855469 3.582031 C 11.992188 3.46875 12.078125 3.398438 12.117188 3.375 C 12.195312 3.332031 12.277344 3.316406 12.363281 3.324219 C 12.410156 3.328125 12.460938 3.347656 12.511719 3.386719 C 12.554688 3.417969 12.597656 3.453125 12.640625 3.488281 C 12.652344 3.5 12.671875 3.503906 12.6875 3.5 C 12.804688 3.484375 12.90625 3.476562 12.992188 3.476562 C 13.117188 3.480469 13.210938 3.523438 13.273438 3.605469 C 13.328125 3.683594 13.347656 3.773438 13.332031 3.878906 C 13.3125 4 13.246094 4.097656 13.136719 4.179688 C 13.121094 4.191406 13.109375 4.210938 13.109375 4.230469 C 13.105469 4.335938 13.109375 4.449219 13.128906 4.5625 C 13.128906 4.570312 13.136719 4.578125 13.148438 4.578125 C 13.183594 4.578125 13.214844 4.570312 13.25 4.5625 C 13.394531 4.507812 13.519531 4.492188 13.625 4.507812 C 13.738281 4.527344 13.8125 4.597656 13.847656 4.726562 C 13.878906 4.839844 13.875 4.96875 13.835938 5.117188 C 13.832031 5.132812 13.835938 5.152344 13.847656 5.164062 C 13.867188 5.195312 13.894531 5.226562 13.921875 5.261719 C 13.953125 5.296875 13.972656 5.332031 13.980469 5.363281 C 13.996094 5.402344 14 5.445312 14 5.488281 C 14 5.496094 14.003906 5.503906 14.007812 5.507812 C 14.015625 5.511719 14.023438 5.515625 14.03125 5.515625 L 14.363281 5.507812 C 14.429688 5.507812 14.480469 5.53125 14.519531 5.585938 C 14.699219 5.828125 14.679688 6.050781 14.457031 6.246094 C 14.417969 6.28125 14.378906 6.316406 14.335938 6.347656 C 14.304688 6.371094 14.296875 6.402344 14.320312 6.433594 C 14.359375 6.492188 14.375 6.554688 14.367188 6.621094 C 14.347656 6.785156 14.253906 6.871094 14.085938 6.871094 C 13.902344 6.875 13.71875 6.859375 13.539062 6.824219 C 13.53125 6.820312 13.519531 6.824219 13.511719 6.828125 C 13.507812 6.832031 13.5 6.84375 13.5 6.851562 C 13.472656 7.074219 13.34375 7.175781 13.117188 7.152344 C 13.105469 7.152344 13.097656 7.152344 13.089844 7.152344 C 13.070312 7.160156 13.070312 7.175781 13.09375 7.195312 C 13.144531 7.230469 13.179688 7.269531 13.207031 7.3125 C 13.222656 7.335938 13.238281 7.378906 13.253906 7.445312 C 13.261719 7.496094 13.277344 7.539062 13.300781 7.585938 C 13.304688 7.597656 13.316406 7.605469 13.328125 7.609375 C 13.339844 7.613281 13.351562 7.613281 13.367188 7.609375 C 13.457031 7.5625 13.546875 7.523438 13.640625 7.488281 C 13.855469 7.410156 14.015625 7.460938 14.113281 7.636719 C 14.128906 7.664062 14.140625 7.699219 14.148438 7.746094 C 14.152344 7.785156 14.160156 7.820312 14.171875 7.859375 C 14.171875 7.867188 14.179688 7.875 14.1875 7.882812 C 14.222656 7.902344 14.265625 7.917969 14.320312 7.9375 C 14.460938 7.976562 14.566406 8.039062 14.632812 8.117188 C 14.675781 8.175781 14.695312 8.238281 14.6875 8.3125 C 14.683594 8.375 14.675781 8.4375 14.664062 8.496094 C 14.648438 8.574219 14.609375 8.636719 14.554688 8.679688 C 14.515625 8.710938 14.460938 8.730469 14.386719 8.734375 C 14.292969 8.738281 14.230469 8.742188 14.203125 8.734375 C 14.132812 8.71875 14.089844 8.75 14.078125 8.820312 C 14.058594 8.980469 13.972656 9.0625 13.828125 9.070312 C 13.792969 9.074219 13.742188 9.066406 13.671875 9.050781 C 13.621094 9.039062 13.566406 9.027344 13.515625 9.019531 C 13.503906 9.015625 13.496094 9.019531 13.488281 9.023438 C 13.40625 9.074219 13.355469 9.121094 13.335938 9.171875 C 13.308594 9.226562 13.28125 9.28125 13.246094 9.332031 C 13.207031 9.394531 13.15625 9.429688 13.09375 9.429688 C 13.039062 9.429688 12.988281 9.4375 12.941406 9.445312 C 12.910156 9.453125 12.886719 9.46875 12.875 9.496094 C 12.824219 9.59375 12.757812 9.65625 12.667969 9.691406 C 12.613281 9.714844 12.570312 9.753906 12.542969 9.804688 C 12.515625 9.851562 12.523438 9.894531 12.558594 9.929688 C 12.609375 9.984375 12.640625 10.042969 12.652344 10.105469 C 12.664062 10.171875 12.65625 10.234375 12.625 10.292969 C 12.578125 10.382812 12.5 10.4375 12.390625 10.460938 C 12.34375 10.46875 12.269531 10.46875 12.164062 10.460938 C 12.128906 10.457031 12.089844 10.46875 12.042969 10.5 C 11.992188 10.53125 11.953125 10.550781 11.929688 10.558594 C 11.78125 10.601562 11.640625 10.566406 11.515625 10.460938 C 11.46875 10.414062 11.414062 10.40625 11.359375 10.425781 C 11.308594 10.445312 11.28125 10.457031 11.28125 10.457031 C 11.175781 10.480469 11.082031 10.46875 11 10.421875 C 10.945312 10.386719 10.886719 10.320312 10.828125 10.222656 C 10.785156 10.144531 10.742188 10.066406 10.703125 9.984375 C 10.691406 9.957031 10.667969 9.941406 10.640625 9.9375 C 10.535156 9.933594 10.457031 9.894531 10.398438 9.824219 C 10.363281 9.785156 10.332031 9.710938 10.300781 9.601562 C 10.277344 9.523438 10.257812 9.441406 10.234375 9.367188 C 10.222656 9.320312 10.195312 9.308594 10.15625 9.332031 C 9.886719 9.480469 9.667969 9.671875 9.492188 9.914062 C 9.386719 10.0625 9.308594 10.21875 9.257812 10.390625 C 9.21875 10.523438 9.1875 10.695312 9.171875 10.910156 C 9.140625 11.265625 9.171875 11.605469 9.265625 11.921875 C 9.3125 12.078125 9.390625 12.21875 9.507812 12.34375 C 9.59375 12.441406 9.71875 12.539062 9.878906 12.636719 C 10.027344 12.730469 10.179688 12.808594 10.339844 12.878906 C 10.539062 12.960938 10.730469 13.050781 10.925781 13.144531 C 11.027344 13.199219 11.121094 13.269531 11.199219 13.355469 C 11.289062 13.453125 11.398438 13.503906 11.519531 13.511719 C 11.535156 13.511719 11.621094 13.496094 11.773438 13.46875 C 11.902344 13.449219 12.03125 13.449219 12.15625 13.46875 C 12.28125 13.496094 12.398438 13.554688 12.496094 13.652344 C 12.675781 13.820312 12.742188 14.027344 12.703125 14.273438 C 12.691406 14.339844 12.671875 14.40625 12.640625 14.464844 C 12.613281 14.511719 12.566406 14.558594 12.507812 14.605469 C 12.425781 14.667969 12.34375 14.722656 12.257812 14.769531 C 12.191406 14.808594 12.125 14.828125 12.058594 14.832031 C 11.914062 14.84375 11.769531 14.828125 11.625 14.78125 C 11.589844 14.769531 11.554688 14.765625 11.515625 14.765625 C 11.488281 14.765625 11.457031 14.773438 11.414062 14.785156 C 11.296875 14.824219 11.179688 14.839844 11.058594 14.835938 C 11.019531 14.832031 10.960938 14.824219 10.882812 14.804688 C 10.84375 14.796875 10.800781 14.789062 10.761719 14.78125 C 10.726562 14.777344 10.6875 14.78125 10.644531 14.792969 C 10.445312 14.855469 10.246094 14.851562 10.042969 14.78125 C 10 14.769531 9.957031 14.769531 9.914062 14.78125 C 9.78125 14.832031 9.640625 14.847656 9.5 14.832031 C 9.46875 14.828125 9.421875 14.816406 9.363281 14.800781 C 9.324219 14.789062 9.28125 14.777344 9.242188 14.769531 C 9.230469 14.765625 9.222656 14.769531 9.210938 14.773438 C 9.007812 14.855469 8.800781 14.859375 8.59375 14.789062 C 8.554688 14.777344 8.503906 14.777344 8.4375 14.785156 C 8.4375 14.785156 8.390625 14.796875 8.300781 14.816406 C 8.167969 14.84375 8.027344 14.839844 7.882812 14.796875 C 7.835938 14.785156 7.785156 14.78125 7.726562 14.789062 C 7.710938 14.789062 7.660156 14.800781 7.578125 14.820312 C 7.429688 14.851562 7.289062 14.847656 7.148438 14.804688 C 7.101562 14.789062 7.058594 14.78125 7.015625 14.777344 C 6.988281 14.777344 6.941406 14.785156 6.878906 14.800781 C 6.722656 14.84375 6.5625 14.84375 6.398438 14.804688 C 6.3125 14.78125 6.230469 14.78125 6.144531 14.800781 C 6.054688 14.820312 6.011719 14.832031 6.007812 14.832031 C 5.890625 14.847656 5.78125 14.839844 5.679688 14.8125 C 5.628906 14.796875 5.582031 14.789062 5.546875 14.78125 C 5.507812 14.773438 5.464844 14.777344 5.410156 14.792969 C 5.226562 14.839844 5.039062 14.84375 4.851562 14.804688 C 4.847656 14.804688 4.820312 14.796875 4.761719 14.777344 C 4.71875 14.765625 4.679688 14.765625 4.636719 14.78125 C 4.589844 14.796875 4.566406 14.804688 4.566406 14.808594 C 4.332031 14.867188 4.113281 14.847656 3.90625 14.746094 C 3.820312 14.703125 3.753906 14.652344 3.699219 14.597656 C 3.632812 14.527344 3.59375 14.453125 3.578125 14.367188 C 3.5625 14.289062 3.566406 14.164062 3.582031 13.992188 C 3.597656 13.84375 3.652344 13.722656 3.75 13.632812 C 3.832031 13.554688 3.945312 13.503906 4.089844 13.472656 C 4.265625 13.4375 4.4375 13.445312 4.613281 13.5 C 4.675781 13.515625 4.726562 13.523438 4.765625 13.519531 C 4.800781 13.515625 4.835938 13.511719 4.871094 13.5 C 4.90625 13.492188 4.941406 13.484375 4.976562 13.484375 C 5.113281 13.480469 5.238281 13.441406 5.351562 13.375 C 5.710938 13.144531 6.03125 12.964844 6.3125 12.828125 C 6.460938 12.761719 6.59375 12.683594 6.707031 12.597656 C 6.832031 12.503906 6.9375 12.394531 7.019531 12.269531 C 7.109375 12.136719 7.175781 11.992188 7.21875 11.835938 C 7.253906 11.722656 7.269531 11.667969 7.269531 11.667969 C 7.28125 11.605469 7.273438 11.546875 7.25 11.484375 C 7.226562 11.433594 7.191406 11.367188 7.144531 11.289062 C 7.007812 11.0625 6.875 10.835938 6.738281 10.609375 C 6.535156 10.265625 6.429688 10.085938 6.417969 10.074219 C 6.269531 9.859375 6.082031 9.664062 5.859375 9.496094 C 5.824219 9.46875 5.792969 9.472656 5.769531 9.511719 C 5.746094 9.542969 5.722656 9.59375 5.699219 9.65625 C 5.644531 9.8125 5.578125 9.941406 5.5 10.054688 C 5.464844 10.101562 5.417969 10.136719 5.359375 10.15625 C 5.320312 10.171875 5.285156 10.167969 5.25 10.152344 C 5.222656 10.136719 5.191406 10.117188 5.15625 10.089844 C 5.148438 10.082031 5.140625 10.082031 5.128906 10.085938 C 5.121094 10.085938 5.113281 10.09375 5.109375 10.101562 Z M 7.378906 2.34375 C 7.316406 2.351562 7.28125 2.328125 7.277344 2.265625 L 7.234375 1.882812 C 7.230469 1.832031 7.214844 1.792969 7.191406 1.757812 C 7.128906 1.664062 7.066406 1.667969 6.996094 1.769531 C 6.957031 1.820312 6.917969 1.824219 6.871094 1.78125 C 6.753906 1.667969 6.628906 1.5625 6.496094 1.464844 C 6.457031 1.433594 6.425781 1.417969 6.398438 1.410156 C 6.335938 1.398438 6.3125 1.4375 6.320312 1.53125 C 6.332031 1.628906 6.351562 1.722656 6.382812 1.8125 C 6.402344 1.871094 6.414062 1.9375 6.421875 2.007812 C 6.429688 2.074219 6.402344 2.109375 6.335938 2.121094 C 6.269531 2.128906 6.207031 2.15625 6.140625 2.195312 C 6.132812 2.203125 6.125 2.210938 6.125 2.21875 C 6.113281 2.269531 6.113281 2.308594 6.125 2.332031 C 6.132812 2.34375 6.140625 2.351562 6.152344 2.351562 C 6.164062 2.351562 6.175781 2.351562 6.183594 2.339844 C 6.292969 2.234375 6.390625 2.191406 6.476562 2.214844 C 6.601562 2.246094 6.6875 2.324219 6.738281 2.441406 C 6.789062 2.554688 6.8125 2.675781 6.8125 2.796875 C 6.8125 2.808594 6.820312 2.824219 6.835938 2.828125 C 6.949219 2.867188 7.0625 2.867188 7.167969 2.828125 C 7.222656 2.804688 7.261719 2.792969 7.273438 2.792969 C 7.308594 2.789062 7.347656 2.789062 7.390625 2.796875 C 7.472656 2.808594 7.515625 2.773438 7.519531 2.6875 C 7.527344 2.550781 7.527344 2.417969 7.515625 2.296875 C 7.515625 2.261719 7.5 2.253906 7.476562 2.277344 C 7.4375 2.316406 7.402344 2.335938 7.378906 2.34375 Z M 10.152344 2.566406 C 10.230469 2.503906 10.296875 2.429688 10.351562 2.339844 C 10.375 2.304688 10.367188 2.269531 10.332031 2.242188 C 10.253906 2.183594 10.164062 2.132812 10.054688 2.09375 C 10.011719 2.078125 9.996094 2.046875 10 2 C 10.007812 1.929688 10.015625 1.859375 10.015625 1.785156 C 10.019531 1.6875 9.976562 1.617188 9.890625 1.578125 C 9.878906 1.570312 9.871094 1.574219 9.859375 1.578125 C 9.757812 1.625 9.671875 1.691406 9.601562 1.78125 C 9.5625 1.835938 9.511719 1.882812 9.449219 1.925781 C 9.433594 1.9375 9.414062 1.9375 9.398438 1.933594 C 9.324219 1.90625 9.265625 1.875 9.222656 1.835938 C 9.207031 1.820312 9.195312 1.824219 9.191406 1.847656 C 9.179688 1.902344 9.179688 1.949219 9.195312 1.996094 C 9.199219 2.003906 9.207031 2.011719 9.21875 2.011719 C 9.308594 2.023438 9.375 2.0625 9.425781 2.128906 C 9.460938 2.175781 9.484375 2.246094 9.496094 2.335938 C 9.519531 2.53125 9.472656 2.710938 9.359375 2.878906 C 9.355469 2.882812 9.355469 2.890625 9.359375 2.898438 C 9.359375 2.902344 9.363281 2.910156 9.371094 2.914062 C 9.421875 2.9375 9.460938 2.96875 9.492188 3.011719 C 9.519531 3.050781 9.53125 3.097656 9.527344 3.15625 C 9.519531 3.257812 9.503906 3.351562 9.476562 3.445312 C 9.476562 3.449219 9.476562 3.457031 9.480469 3.460938 C 9.484375 3.464844 9.488281 3.46875 9.496094 3.46875 C 9.601562 3.472656 9.671875 3.433594 9.699219 3.355469 C 9.707031 3.335938 9.710938 3.324219 9.710938 3.324219 C 9.769531 3.1875 9.847656 3.078125 9.945312 2.992188 C 9.976562 2.96875 10.015625 2.949219 10.066406 2.9375 C 10.101562 2.929688 10.125 2.917969 10.132812 2.910156 C 10.152344 2.886719 10.136719 2.855469 10.078125 2.820312 C 10.042969 2.796875 10.03125 2.765625 10.035156 2.726562 C 10.039062 2.695312 10.050781 2.664062 10.078125 2.632812 C 10.089844 2.617188 10.113281 2.59375 10.152344 2.566406 Z M 8.960938 2.242188 C 8.953125 2.121094 8.949219 2.003906 8.953125 1.882812 C 8.953125 1.824219 8.945312 1.773438 8.921875 1.722656 C 8.898438 1.667969 8.863281 1.632812 8.816406 1.613281 C 8.742188 1.578125 8.683594 1.617188 8.644531 1.730469 C 8.605469 1.828125 8.566406 1.925781 8.523438 2.023438 C 8.503906 2.074219 8.476562 2.105469 8.445312 2.125 C 8.40625 2.144531 8.363281 2.152344 8.3125 2.148438 C 8.234375 2.140625 8.171875 2.144531 8.125 2.167969 C 8.074219 2.1875 8.0625 2.222656 8.082031 2.269531 L 8.214844 2.589844 C 8.238281 2.648438 8.257812 2.703125 8.265625 2.75 C 8.285156 2.828125 8.273438 2.878906 8.234375 2.910156 C 8.230469 2.910156 8.195312 2.925781 8.121094 2.949219 C 8.082031 2.960938 8.042969 2.976562 8.007812 2.988281 C 7.980469 3 7.980469 3.007812 8.007812 3.015625 C 8.191406 3.058594 8.304688 3.160156 8.347656 3.320312 C 8.394531 3.480469 8.382812 3.636719 8.3125 3.789062 C 8.269531 3.875 8.289062 3.910156 8.359375 3.898438 C 8.398438 3.890625 8.425781 3.867188 8.433594 3.828125 C 8.488281 3.621094 8.539062 3.425781 8.578125 3.242188 C 8.625 3.039062 8.667969 2.878906 8.707031 2.769531 C 8.710938 2.753906 8.71875 2.746094 8.726562 2.742188 C 8.742188 2.730469 8.753906 2.730469 8.765625 2.746094 C 8.769531 2.753906 8.773438 2.769531 8.773438 2.785156 C 8.78125 3.15625 8.738281 3.523438 8.640625 3.882812 C 8.632812 3.90625 8.640625 3.910156 8.660156 3.898438 C 8.753906 3.835938 8.851562 3.777344 8.949219 3.722656 C 9.035156 3.679688 9.097656 3.632812 9.136719 3.585938 C 9.199219 3.515625 9.246094 3.429688 9.277344 3.339844 C 9.300781 3.277344 9.3125 3.238281 9.316406 3.222656 C 9.328125 3.164062 9.300781 3.125 9.234375 3.109375 C 9.230469 3.109375 9.207031 3.105469 9.15625 3.101562 C 9.113281 3.097656 9.074219 3.078125 9.046875 3.042969 C 9.042969 3.035156 9.039062 3.027344 9.042969 3.015625 C 9.058594 2.945312 9.085938 2.878906 9.125 2.824219 C 9.175781 2.757812 9.199219 2.722656 9.199219 2.722656 C 9.242188 2.648438 9.273438 2.582031 9.289062 2.523438 C 9.308594 2.433594 9.296875 2.351562 9.253906 2.269531 C 9.238281 2.246094 9.207031 2.230469 9.179688 2.242188 C 9.121094 2.261719 9.050781 2.269531 8.976562 2.257812 C 8.96875 2.257812 8.960938 2.25 8.960938 2.242188 Z M 6.105469 3.261719 C 6.152344 3.25 6.203125 3.265625 6.25 3.308594 C 6.40625 3.449219 6.523438 3.621094 6.605469 3.816406 C 6.644531 3.917969 6.695312 3.984375 6.757812 4.015625 C 6.789062 4.027344 6.804688 4.023438 6.800781 3.996094 C 6.796875 3.988281 6.792969 3.976562 6.785156 3.964844 C 6.722656 3.84375 6.707031 3.71875 6.742188 3.585938 C 6.75 3.554688 6.773438 3.527344 6.8125 3.507812 L 6.96875 3.421875 C 6.980469 3.417969 6.984375 3.40625 6.984375 3.394531 L 7 3.082031 C 7 3.074219 6.996094 3.070312 6.992188 3.066406 C 6.988281 3.066406 6.984375 3.0625 6.976562 3.066406 L 6.710938 3.109375 C 6.664062 3.117188 6.636719 3.097656 6.632812 3.046875 C 6.617188 2.933594 6.601562 2.820312 6.582031 2.703125 C 6.566406 2.605469 6.53125 2.515625 6.476562 2.429688 C 6.46875 2.421875 6.457031 2.414062 6.445312 2.414062 C 6.433594 2.414062 6.421875 2.417969 6.414062 2.425781 C 6.378906 2.464844 6.347656 2.507812 6.320312 2.554688 C 6.222656 2.742188 6.097656 2.757812 5.949219 2.605469 C 5.839844 2.492188 5.75 2.414062 5.679688 2.375 C 5.609375 2.339844 5.542969 2.339844 5.476562 2.375 C 5.398438 2.417969 5.367188 2.484375 5.382812 2.578125 C 5.394531 2.664062 5.417969 2.746094 5.457031 2.824219 C 5.492188 2.898438 5.515625 2.960938 5.523438 3.015625 C 5.535156 3.09375 5.519531 3.144531 5.476562 3.167969 C 5.441406 3.1875 5.410156 3.210938 5.378906 3.234375 C 5.328125 3.273438 5.300781 3.3125 5.296875 3.355469 C 5.292969 3.390625 5.3125 3.429688 5.355469 3.464844 C 5.410156 3.515625 5.472656 3.554688 5.546875 3.578125 C 5.636719 3.609375 5.730469 3.640625 5.820312 3.675781 C 5.871094 3.699219 5.898438 3.730469 5.90625 3.773438 C 5.910156 3.804688 5.902344 3.839844 5.878906 3.886719 C 5.84375 3.953125 5.808594 4.023438 5.773438 4.089844 C 5.765625 4.105469 5.773438 4.125 5.789062 4.136719 C 5.832031 4.160156 5.886719 4.171875 5.960938 4.175781 C 5.96875 4.175781 5.980469 4.171875 5.988281 4.164062 C 5.996094 4.15625 6 4.148438 6 4.136719 C 6 4.042969 6.027344 3.960938 6.078125 3.890625 C 6.085938 3.878906 6.09375 3.875 6.101562 3.871094 L 6.351562 3.828125 C 6.359375 3.828125 6.363281 3.824219 6.367188 3.816406 C 6.371094 3.8125 6.367188 3.804688 6.367188 3.800781 C 6.261719 3.644531 6.164062 3.484375 6.078125 3.316406 C 6.074219 3.308594 6.074219 3.296875 6.078125 3.285156 C 6.082031 3.273438 6.09375 3.265625 6.105469 3.261719 Z M 7.792969 3.386719 C 7.714844 3.324219 7.640625 3.25 7.5625 3.164062 C 7.488281 3.085938 7.429688 3.039062 7.382812 3.015625 C 7.300781 2.984375 7.253906 3.007812 7.242188 3.09375 C 7.226562 3.183594 7.21875 3.328125 7.210938 3.523438 C 7.207031 3.59375 7.175781 3.632812 7.109375 3.644531 C 7.058594 3.652344 7.011719 3.664062 6.964844 3.675781 C 6.953125 3.679688 6.945312 3.6875 6.941406 3.699219 C 6.933594 3.707031 6.933594 3.722656 6.9375 3.730469 C 6.992188 3.847656 7.054688 3.957031 7.132812 4.058594 C 7.167969 4.101562 7.1875 4.132812 7.195312 4.152344 C 7.207031 4.191406 7.210938 4.226562 7.207031 4.269531 C 7.199219 4.371094 7.253906 4.464844 7.371094 4.554688 C 7.394531 4.574219 7.414062 4.601562 7.425781 4.632812 C 7.441406 4.6875 7.484375 4.683594 7.554688 4.613281 C 7.574219 4.59375 7.582031 4.566406 7.578125 4.539062 C 7.527344 4.328125 7.503906 4.113281 7.507812 3.894531 C 7.507812 3.871094 7.511719 3.855469 7.515625 3.839844 C 7.53125 3.808594 7.550781 3.800781 7.578125 3.820312 C 7.59375 3.832031 7.601562 3.847656 7.613281 3.875 C 7.671875 4.058594 7.722656 4.242188 7.773438 4.429688 C 7.8125 4.574219 7.898438 4.660156 8.03125 4.679688 C 8.058594 4.683594 8.082031 4.667969 8.089844 4.640625 C 8.117188 4.535156 8.164062 4.457031 8.230469 4.398438 C 8.230469 4.398438 8.257812 4.378906 8.308594 4.347656 C 8.359375 4.3125 8.390625 4.269531 8.410156 4.214844 C 8.433594 4.148438 8.410156 4.113281 8.339844 4.109375 C 8.289062 4.101562 8.238281 4.097656 8.1875 4.085938 C 8.132812 4.074219 8.097656 4.054688 8.074219 4.03125 C 8.039062 3.996094 8.03125 3.949219 8.046875 3.890625 C 8.078125 3.800781 8.109375 3.707031 8.136719 3.613281 C 8.160156 3.542969 8.167969 3.484375 8.160156 3.445312 C 8.152344 3.382812 8.121094 3.328125 8.070312 3.285156 C 8.066406 3.277344 8.054688 3.277344 8.046875 3.28125 C 7.988281 3.300781 7.933594 3.335938 7.886719 3.382812 C 7.855469 3.410156 7.824219 3.414062 7.792969 3.386719 Z M 10.351562 3.394531 C 10.308594 3.382812 10.28125 3.359375 10.265625 3.332031 C 10.242188 3.292969 10.21875 3.25 10.203125 3.207031 C 10.164062 3.121094 10.125 3.109375 10.078125 3.164062 C 9.96875 3.296875 9.886719 3.453125 9.839844 3.628906 C 9.832031 3.664062 9.804688 3.683594 9.765625 3.6875 L 9.550781 3.703125 C 9.542969 3.703125 9.53125 3.710938 9.527344 3.71875 C 9.523438 3.726562 9.519531 3.734375 9.523438 3.746094 C 9.535156 3.800781 9.550781 3.855469 9.574219 3.90625 C 9.613281 4 9.644531 4.113281 9.664062 4.246094 C 9.664062 4.269531 9.675781 4.273438 9.691406 4.257812 C 9.828125 4.121094 9.957031 4.003906 10.082031 3.90625 C 10.140625 3.859375 10.203125 3.828125 10.273438 3.8125 C 10.308594 3.804688 10.328125 3.816406 10.328125 3.839844 C 10.328125 3.855469 10.324219 3.867188 10.3125 3.882812 C 10.183594 4.035156 10.058594 4.191406 9.933594 4.34375 C 9.921875 4.359375 9.925781 4.367188 9.945312 4.367188 C 10.089844 4.375 10.175781 4.453125 10.199219 4.59375 C 10.207031 4.660156 10.222656 4.722656 10.234375 4.789062 C 10.234375 4.796875 10.242188 4.804688 10.25 4.804688 C 10.382812 4.8125 10.476562 4.765625 10.523438 4.667969 C 10.542969 4.628906 10.542969 4.585938 10.523438 4.546875 C 10.492188 4.484375 10.480469 4.433594 10.492188 4.390625 C 10.496094 4.359375 10.53125 4.328125 10.585938 4.292969 C 10.671875 4.246094 10.75 4.199219 10.816406 4.15625 C 10.859375 4.132812 10.898438 4.101562 10.929688 4.066406 C 11.015625 3.972656 11.007812 3.890625 10.914062 3.820312 C 10.882812 3.792969 10.863281 3.761719 10.855469 3.726562 C 10.847656 3.699219 10.855469 3.664062 10.878906 3.628906 C 10.929688 3.53125 10.992188 3.453125 11.054688 3.382812 C 11.113281 3.328125 11.132812 3.265625 11.113281 3.203125 C 11.097656 3.152344 11.058594 3.113281 10.996094 3.089844 C 10.898438 3.050781 10.800781 3.074219 10.710938 3.164062 C 10.613281 3.257812 10.503906 3.332031 10.382812 3.390625 C 10.371094 3.394531 10.363281 3.398438 10.351562 3.394531 Z M 11.054688 4.28125 L 11.15625 4.414062 C 11.164062 4.425781 11.179688 4.429688 11.195312 4.421875 C 11.285156 4.382812 11.378906 4.347656 11.472656 4.320312 C 11.511719 4.308594 11.5625 4.296875 11.625 4.292969 C 11.695312 4.285156 11.75 4.273438 11.78125 4.257812 C 11.96875 4.152344 12.144531 4.082031 12.3125 4.039062 C 12.355469 4.027344 12.375 4.039062 12.371094 4.070312 C 12.371094 4.082031 12.363281 4.097656 12.351562 4.113281 C 12.320312 4.144531 12.28125 4.175781 12.234375 4.210938 C 12.132812 4.273438 12.03125 4.339844 11.933594 4.40625 C 11.925781 4.410156 11.921875 4.421875 11.925781 4.429688 C 12.003906 4.59375 12.125 4.707031 12.296875 4.757812 C 12.304688 4.761719 12.3125 4.757812 12.320312 4.75 C 12.40625 4.621094 12.515625 4.523438 12.648438 4.453125 C 12.679688 4.433594 12.71875 4.421875 12.765625 4.414062 C 12.804688 4.40625 12.84375 4.398438 12.886719 4.386719 C 12.894531 4.386719 12.898438 4.382812 12.902344 4.378906 C 12.902344 4.375 12.902344 4.367188 12.902344 4.363281 C 12.894531 4.332031 12.882812 4.300781 12.871094 4.269531 C 12.839844 4.183594 12.855469 4.113281 12.925781 4.058594 C 13 3.996094 13.066406 3.933594 13.121094 3.871094 C 13.136719 3.847656 13.140625 3.816406 13.125 3.792969 C 13.070312 3.71875 13 3.683594 12.914062 3.695312 C 12.8125 3.707031 12.714844 3.726562 12.617188 3.75 C 12.601562 3.753906 12.582031 3.75 12.570312 3.738281 C 12.523438 3.695312 12.472656 3.648438 12.421875 3.601562 C 12.386719 3.570312 12.351562 3.550781 12.328125 3.546875 C 12.289062 3.539062 12.25 3.550781 12.210938 3.585938 C 12.101562 3.667969 11.988281 3.742188 11.867188 3.800781 C 11.839844 3.816406 11.808594 3.816406 11.785156 3.800781 L 11.613281 3.695312 C 11.585938 3.679688 11.550781 3.679688 11.535156 3.703125 L 11.054688 4.246094 C 11.046875 4.257812 11.046875 4.269531 11.054688 4.28125 Z M 8.632812 4.257812 C 8.625 4.265625 8.621094 4.277344 8.625 4.289062 C 8.628906 4.300781 8.636719 4.308594 8.648438 4.308594 L 9.410156 4.492188 C 9.421875 4.492188 9.433594 4.492188 9.445312 4.484375 C 9.453125 4.476562 9.460938 4.464844 9.460938 4.449219 C 9.46875 4.289062 9.433594 4.132812 9.359375 3.984375 C 9.332031 3.921875 9.296875 3.882812 9.257812 3.859375 C 9.25 3.855469 9.238281 3.855469 9.230469 3.859375 C 9.003906 3.925781 8.804688 4.058594 8.632812 4.257812 Z M 6.667969 5.726562 C 6.523438 5.707031 6.390625 5.660156 6.273438 5.589844 C 6.191406 5.539062 6.132812 5.488281 6.097656 5.429688 C 6.054688 5.363281 6.03125 5.285156 6.03125 5.195312 C 6.027344 5.105469 6.015625 5.011719 5.988281 4.917969 C 5.960938 4.816406 5.945312 4.742188 5.945312 4.695312 C 5.9375 4.621094 5.9375 4.542969 5.945312 4.46875 C 5.949219 4.421875 5.929688 4.394531 5.882812 4.390625 C 5.769531 4.375 5.671875 4.332031 5.585938 4.261719 C 5.503906 4.191406 5.453125 4.148438 5.4375 4.140625 C 5.324219 4.070312 5.207031 4.011719 5.078125 3.964844 C 4.972656 3.925781 4.875 3.941406 4.789062 4.019531 C 4.761719 4.042969 4.753906 4.078125 4.765625 4.113281 C 4.800781 4.226562 4.863281 4.332031 4.949219 4.433594 C 4.984375 4.476562 4.996094 4.53125 4.976562 4.601562 C 4.960938 4.664062 4.941406 4.730469 4.921875 4.792969 C 4.90625 4.859375 4.921875 4.910156 4.976562 4.945312 C 5.003906 4.960938 5.074219 4.972656 5.179688 4.980469 C 5.246094 4.988281 5.3125 5.003906 5.371094 5.035156 C 5.4375 5.066406 5.472656 5.117188 5.476562 5.191406 C 5.476562 5.25 5.511719 5.296875 5.570312 5.328125 C 5.683594 5.382812 5.777344 5.46875 5.847656 5.582031 C 5.855469 5.59375 5.867188 5.601562 5.882812 5.601562 C 5.9375 5.601562 5.980469 5.601562 6.007812 5.597656 C 6.175781 5.578125 6.296875 5.640625 6.371094 5.785156 C 6.398438 5.839844 6.429688 5.882812 6.464844 5.921875 C 6.488281 5.945312 6.515625 5.957031 6.550781 5.953125 C 6.601562 5.945312 6.652344 5.941406 6.703125 5.945312 C 6.742188 5.949219 6.792969 5.964844 6.84375 5.992188 C 6.894531 6.019531 6.945312 6.039062 6.996094 6.058594 C 7.042969 6.074219 7.085938 6.082031 7.117188 6.070312 C 7.160156 6.0625 7.195312 6.035156 7.222656 5.992188 C 7.230469 5.980469 7.230469 5.96875 7.226562 5.957031 L 7.121094 5.726562 C 7.109375 5.707031 7.089844 5.695312 7.0625 5.699219 C 6.898438 5.730469 6.765625 5.738281 6.667969 5.726562 Z M 6.859375 4.320312 C 6.78125 4.257812 6.691406 4.214844 6.589844 4.1875 C 6.5 4.164062 6.449219 4.148438 6.429688 4.140625 C 6.371094 4.117188 6.324219 4.089844 6.277344 4.058594 C 6.234375 4.027344 6.21875 4.039062 6.226562 4.089844 C 6.238281 4.191406 6.234375 4.289062 6.210938 4.378906 C 6.183594 4.476562 6.171875 4.527344 6.171875 4.527344 C 6.15625 4.640625 6.160156 4.753906 6.1875 4.867188 C 6.191406 4.882812 6.199219 4.894531 6.214844 4.898438 C 6.226562 4.90625 6.242188 4.90625 6.253906 4.902344 C 6.382812 4.84375 6.511719 4.777344 6.636719 4.703125 C 6.695312 4.667969 6.753906 4.636719 6.8125 4.613281 C 6.878906 4.589844 6.9375 4.566406 7 4.539062 C 7.007812 4.535156 7.011719 4.53125 7.015625 4.523438 C 7.015625 4.519531 7.015625 4.511719 7.011719 4.503906 C 6.976562 4.429688 6.925781 4.367188 6.859375 4.320312 Z M 3.367188 5.441406 C 3.332031 5.460938 3.296875 5.476562 3.261719 5.488281 C 3.210938 5.507812 3.179688 5.527344 3.167969 5.539062 C 3.136719 5.574219 3.140625 5.617188 3.175781 5.667969 C 3.210938 5.71875 3.242188 5.761719 3.269531 5.800781 C 3.292969 5.832031 3.324219 5.839844 3.359375 5.828125 C 3.433594 5.808594 3.503906 5.789062 3.570312 5.765625 C 3.621094 5.753906 3.667969 5.757812 3.710938 5.785156 C 3.742188 5.804688 3.769531 5.835938 3.789062 5.882812 C 3.808594 5.917969 3.824219 5.957031 3.835938 6 C 3.855469 6.074219 3.886719 6.140625 3.925781 6.199219 C 3.9375 6.21875 3.945312 6.214844 3.953125 6.199219 C 3.980469 6.140625 4.007812 6.085938 4.039062 6.035156 C 4.085938 5.960938 4.113281 5.90625 4.121094 5.871094 C 4.140625 5.765625 4.105469 5.679688 4.015625 5.609375 C 3.808594 5.457031 3.644531 5.285156 3.527344 5.09375 C 3.46875 4.996094 3.433594 4.882812 3.429688 4.765625 C 3.425781 4.679688 3.457031 4.667969 3.519531 4.722656 C 3.554688 4.753906 3.585938 4.796875 3.617188 4.851562 C 3.664062 4.929688 3.6875 4.96875 3.6875 4.972656 C 3.78125 5.113281 3.898438 5.242188 4.035156 5.359375 C 4.074219 5.390625 4.113281 5.398438 4.160156 5.382812 C 4.425781 5.289062 4.703125 5.257812 4.992188 5.28125 C 5.09375 5.292969 5.167969 5.296875 5.210938 5.292969 C 5.222656 5.292969 5.230469 5.285156 5.234375 5.277344 C 5.246094 5.253906 5.242188 5.234375 5.226562 5.222656 C 5.214844 5.210938 5.199219 5.203125 5.171875 5.203125 C 5.0625 5.1875 4.957031 5.164062 4.855469 5.128906 C 4.8125 5.117188 4.773438 5.109375 4.734375 5.109375 C 4.695312 5.113281 4.65625 5.113281 4.613281 5.117188 C 4.570312 5.117188 4.539062 5.109375 4.515625 5.09375 C 4.488281 5.070312 4.472656 5.039062 4.460938 5 C 4.4375 4.917969 4.425781 4.839844 4.421875 4.773438 C 4.417969 4.691406 4.402344 4.613281 4.371094 4.542969 C 4.367188 4.53125 4.355469 4.519531 4.339844 4.519531 C 4.328125 4.515625 4.316406 4.523438 4.308594 4.53125 C 4.265625 4.582031 4.21875 4.621094 4.164062 4.648438 C 4.125 4.667969 4.09375 4.675781 4.0625 4.667969 C 4.023438 4.660156 3.996094 4.632812 3.984375 4.585938 C 3.949219 4.441406 3.90625 4.292969 3.863281 4.148438 C 3.84375 4.074219 3.808594 4.066406 3.757812 4.132812 C 3.71875 4.183594 3.675781 4.238281 3.625 4.296875 C 3.574219 4.351562 3.523438 4.355469 3.464844 4.308594 C 3.375 4.234375 3.285156 4.15625 3.191406 4.078125 C 3.160156 4.050781 3.132812 4.058594 3.109375 4.09375 C 3.085938 4.140625 3.074219 4.191406 3.074219 4.25 C 3.078125 4.300781 3.078125 4.324219 3.078125 4.328125 C 3.074219 4.417969 3.082031 4.515625 3.097656 4.617188 C 3.101562 4.660156 3.085938 4.691406 3.054688 4.714844 L 2.867188 4.839844 C 2.816406 4.871094 2.8125 4.910156 2.855469 4.953125 C 2.933594 5.03125 3.023438 5.097656 3.128906 5.152344 C 3.199219 5.1875 3.261719 5.226562 3.324219 5.269531 C 3.382812 5.304688 3.402344 5.355469 3.386719 5.421875 C 3.382812 5.429688 3.375 5.4375 3.367188 5.441406 Z M 10.773438 4.429688 C 10.75 4.457031 10.742188 4.488281 10.746094 4.527344 C 10.761719 4.65625 10.738281 4.761719 10.671875 4.847656 C 10.613281 4.917969 10.582031 4.957031 10.582031 4.964844 C 10.539062 5.042969 10.523438 5.128906 10.523438 5.21875 C 10.523438 5.234375 10.519531 5.25 10.515625 5.265625 C 10.503906 5.320312 10.515625 5.332031 10.558594 5.304688 C 10.683594 5.222656 10.816406 5.164062 10.960938 5.125 C 11.019531 5.109375 11.109375 5.085938 11.226562 5.058594 C 11.316406 5.039062 11.40625 5.023438 11.5 5.015625 C 11.507812 5.015625 11.515625 5.007812 11.523438 5 C 11.605469 4.886719 11.695312 4.78125 11.792969 4.683594 C 11.800781 4.675781 11.800781 4.664062 11.800781 4.65625 C 11.765625 4.574219 11.714844 4.527344 11.640625 4.515625 C 11.597656 4.511719 11.53125 4.527344 11.445312 4.566406 C 11.386719 4.589844 11.328125 4.617188 11.269531 4.644531 C 11.214844 4.667969 11.171875 4.679688 11.140625 4.675781 C 11.089844 4.675781 11.046875 4.652344 11.015625 4.609375 C 10.957031 4.519531 10.914062 4.460938 10.890625 4.4375 C 10.84375 4.394531 10.804688 4.394531 10.773438 4.429688 Z M 9.417969 5.832031 C 9.425781 5.832031 9.4375 5.835938 9.441406 5.839844 C 9.445312 5.847656 9.449219 5.855469 9.445312 5.867188 C 9.417969 5.96875 9.390625 6.054688 9.363281 6.113281 C 9.257812 6.347656 9.160156 6.585938 9.074219 6.828125 C 9.039062 6.921875 9.070312 6.949219 9.164062 6.90625 C 9.304688 6.835938 9.441406 6.757812 9.570312 6.667969 C 9.65625 6.609375 9.703125 6.578125 9.714844 6.570312 C 9.757812 6.53125 9.796875 6.484375 9.828125 6.433594 C 9.847656 6.394531 9.839844 6.363281 9.804688 6.339844 L 9.660156 6.234375 C 9.65625 6.234375 9.652344 6.226562 9.652344 6.222656 C 9.652344 6.214844 9.65625 6.210938 9.660156 6.203125 C 9.722656 6.132812 9.792969 6.070312 9.878906 6.019531 C 9.953125 5.972656 10.023438 5.921875 10.09375 5.871094 C 10.160156 5.824219 10.164062 5.773438 10.105469 5.722656 C 10.015625 5.636719 10.015625 5.550781 10.109375 5.46875 C 10.207031 5.378906 10.285156 5.277344 10.335938 5.152344 C 10.359375 5.09375 10.339844 5.058594 10.28125 5.042969 L 10.132812 5 C 10.089844 4.988281 10.066406 4.964844 10.054688 4.929688 C 10.03125 4.847656 10.011719 4.765625 9.996094 4.679688 C 9.980469 4.589844 9.9375 4.566406 9.867188 4.617188 C 9.796875 4.671875 9.742188 4.710938 9.699219 4.738281 C 9.667969 4.761719 9.628906 4.769531 9.585938 4.769531 C 9.535156 4.769531 9.496094 4.769531 9.460938 4.769531 C 9.414062 4.769531 9.382812 4.789062 9.367188 4.835938 C 9.324219 4.957031 9.289062 5.074219 9.261719 5.1875 C 9.238281 5.296875 9.171875 5.324219 9.066406 5.273438 C 9.011719 5.25 8.96875 5.261719 8.933594 5.308594 C 8.878906 5.378906 8.863281 5.464844 8.890625 5.5625 C 8.914062 5.664062 8.941406 5.761719 8.972656 5.863281 C 8.992188 5.925781 9 5.972656 8.992188 6 C 8.984375 6.058594 8.949219 6.09375 8.882812 6.113281 C 8.792969 6.136719 8.75 6.191406 8.757812 6.273438 C 8.769531 6.421875 8.808594 6.574219 8.875 6.722656 C 8.886719 6.746094 8.894531 6.742188 8.902344 6.71875 C 9.007812 6.417969 9.152344 6.140625 9.335938 5.886719 C 9.363281 5.847656 9.390625 5.832031 9.417969 5.832031 Z M 12.625 5.359375 C 12.625 5.367188 12.617188 5.382812 12.601562 5.40625 C 12.476562 5.582031 12.324219 5.734375 12.148438 5.855469 C 12.148438 5.855469 12.121094 5.875 12.070312 5.90625 C 11.929688 5.996094 11.824219 6.117188 11.75 6.265625 C 11.710938 6.347656 11.726562 6.398438 11.796875 6.429688 C 11.851562 6.449219 11.914062 6.460938 11.980469 6.460938 C 12.007812 6.464844 12.066406 6.464844 12.160156 6.460938 C 12.277344 6.457031 12.390625 6.445312 12.503906 6.417969 C 12.5625 6.402344 12.617188 6.378906 12.664062 6.339844 C 12.707031 6.308594 12.714844 6.265625 12.691406 6.21875 C 12.660156 6.160156 12.636719 6.101562 12.613281 6.042969 C 12.578125 5.949219 12.605469 5.894531 12.691406 5.890625 C 12.738281 5.886719 12.761719 5.886719 12.761719 5.886719 C 12.875 5.871094 12.988281 5.859375 13.101562 5.855469 C 13.195312 5.851562 13.28125 5.832031 13.367188 5.792969 C 13.414062 5.773438 13.421875 5.742188 13.390625 5.699219 C 13.359375 5.652344 13.316406 5.617188 13.265625 5.585938 C 13.167969 5.535156 13.140625 5.472656 13.175781 5.398438 C 13.191406 5.367188 13.234375 5.328125 13.296875 5.277344 C 13.394531 5.199219 13.492188 5.121094 13.585938 5.039062 C 13.660156 4.980469 13.683594 4.910156 13.664062 4.828125 C 13.640625 4.742188 13.578125 4.707031 13.476562 4.730469 C 13.355469 4.757812 13.238281 4.792969 13.125 4.832031 C 13.078125 4.851562 13.035156 4.835938 12.996094 4.789062 L 12.875 4.644531 C 12.851562 4.617188 12.816406 4.613281 12.777344 4.636719 C 12.683594 4.695312 12.597656 4.765625 12.523438 4.851562 C 12.480469 4.898438 12.425781 4.941406 12.355469 4.980469 C 12.308594 5.007812 12.261719 5.007812 12.214844 4.972656 C 12.15625 4.933594 12.089844 4.898438 12.007812 4.871094 C 11.996094 4.867188 11.988281 4.867188 11.976562 4.871094 C 11.90625 4.898438 11.847656 4.945312 11.804688 5.003906 C 11.789062 5.027344 11.792969 5.035156 11.816406 5.03125 C 11.914062 5.011719 11.992188 5.035156 12.042969 5.097656 C 12.066406 5.128906 12.078125 5.171875 12.074219 5.226562 C 12.066406 5.339844 12.050781 5.457031 12.03125 5.578125 C 12.019531 5.644531 12.042969 5.660156 12.101562 5.625 L 12.578125 5.332031 C 12.585938 5.328125 12.597656 5.328125 12.609375 5.332031 C 12.617188 5.335938 12.625 5.347656 12.625 5.359375 Z M 7.71875 6.023438 C 7.796875 6.117188 7.875 6.210938 7.949219 6.316406 C 7.96875 6.339844 8.003906 6.347656 8.03125 6.332031 C 8.082031 6.300781 8.144531 6.285156 8.21875 6.285156 C 8.300781 6.285156 8.363281 6.320312 8.40625 6.386719 C 8.488281 6.511719 8.542969 6.664062 8.582031 6.84375 C 8.589844 6.886719 8.617188 6.90625 8.660156 6.90625 C 8.699219 6.90625 8.707031 6.878906 8.679688 6.824219 C 8.59375 6.65625 8.550781 6.476562 8.546875 6.289062 C 8.542969 6.214844 8.558594 6.148438 8.585938 6.09375 C 8.617188 6.035156 8.65625 5.980469 8.710938 5.925781 C 8.738281 5.894531 8.746094 5.859375 8.730469 5.820312 C 8.671875 5.667969 8.652344 5.503906 8.671875 5.320312 C 8.679688 5.234375 8.652344 5.164062 8.582031 5.109375 C 8.574219 5.105469 8.566406 5.105469 8.554688 5.109375 C 8.515625 5.128906 8.476562 5.160156 8.445312 5.195312 C 8.375 5.261719 8.308594 5.265625 8.234375 5.203125 C 8.125 5.109375 8.023438 5.007812 7.921875 4.90625 C 7.867188 4.847656 7.800781 4.816406 7.726562 4.816406 C 7.683594 4.816406 7.652344 4.828125 7.625 4.847656 C 7.597656 4.875 7.582031 4.910156 7.578125 4.953125 C 7.574219 5.019531 7.566406 5.136719 7.566406 5.296875 C 7.5625 5.339844 7.554688 5.378906 7.535156 5.414062 C 7.523438 5.433594 7.492188 5.457031 7.445312 5.488281 C 7.414062 5.507812 7.382812 5.535156 7.355469 5.5625 C 7.324219 5.59375 7.320312 5.628906 7.335938 5.664062 C 7.371094 5.761719 7.4375 5.835938 7.527344 5.894531 C 7.578125 5.925781 7.605469 5.941406 7.605469 5.941406 C 7.667969 5.984375 7.707031 6.011719 7.71875 6.023438 Z M 11.070312 5.335938 C 11.050781 5.367188 11.046875 5.402344 11.054688 5.4375 C 11.113281 5.699219 11.246094 5.882812 11.457031 5.988281 C 11.5 6.011719 11.535156 6.019531 11.566406 6.019531 C 11.613281 6.019531 11.652344 6 11.679688 5.96875 C 11.796875 5.816406 11.847656 5.628906 11.828125 5.414062 C 11.828125 5.40625 11.832031 5.394531 11.835938 5.382812 C 11.851562 5.351562 11.851562 5.320312 11.835938 5.296875 C 11.820312 5.277344 11.796875 5.265625 11.757812 5.265625 C 11.558594 5.253906 11.363281 5.261719 11.164062 5.292969 C 11.117188 5.300781 11.085938 5.316406 11.070312 5.335938 Z M 12.746094 6.546875 C 12.640625 6.605469 12.527344 6.644531 12.398438 6.65625 C 12.351562 6.660156 12.21875 6.675781 12 6.703125 C 11.945312 6.710938 11.925781 6.730469 11.9375 6.769531 C 11.945312 6.789062 11.960938 6.808594 11.984375 6.828125 C 12.066406 6.890625 12.160156 6.921875 12.265625 6.925781 C 12.347656 6.925781 12.390625 6.925781 12.390625 6.925781 C 12.558594 6.9375 12.730469 6.945312 12.902344 6.945312 C 12.902344 6.945312 12.941406 6.949219 13.015625 6.957031 C 13.097656 6.960938 13.171875 6.945312 13.242188 6.90625 C 13.25 6.898438 13.257812 6.890625 13.261719 6.882812 C 13.277344 6.847656 13.285156 6.816406 13.292969 6.777344 C 13.300781 6.722656 13.3125 6.683594 13.328125 6.667969 C 13.367188 6.613281 13.429688 6.59375 13.515625 6.601562 C 13.664062 6.617188 13.777344 6.636719 13.851562 6.65625 C 13.9375 6.675781 14 6.683594 14.046875 6.679688 C 14.136719 6.667969 14.164062 6.628906 14.132812 6.5625 C 14.117188 6.53125 14.109375 6.511719 14.109375 6.511719 C 14.089844 6.457031 14.070312 6.410156 14.058594 6.371094 C 14.039062 6.316406 14.050781 6.269531 14.101562 6.238281 C 14.183594 6.179688 14.265625 6.117188 14.339844 6.058594 C 14.417969 5.996094 14.441406 5.914062 14.414062 5.820312 C 14.390625 5.738281 14.332031 5.699219 14.242188 5.710938 C 14.214844 5.714844 14.128906 5.734375 13.980469 5.769531 C 13.867188 5.796875 13.804688 5.75 13.789062 5.636719 C 13.78125 5.566406 13.773438 5.496094 13.765625 5.421875 C 13.765625 5.414062 13.761719 5.402344 13.753906 5.398438 C 13.703125 5.34375 13.636719 5.328125 13.558594 5.355469 C 13.472656 5.386719 13.460938 5.433594 13.523438 5.5 C 13.585938 5.570312 13.617188 5.652344 13.617188 5.742188 C 13.613281 5.894531 13.535156 5.988281 13.390625 6.023438 C 13.238281 6.0625 13.082031 6.085938 12.921875 6.101562 C 12.914062 6.101562 12.902344 6.109375 12.898438 6.117188 C 12.894531 6.125 12.894531 6.132812 12.898438 6.140625 C 12.9375 6.226562 12.941406 6.308594 12.90625 6.386719 C 12.878906 6.449219 12.824219 6.5 12.746094 6.546875 Z M 5.070312 5.523438 C 5.039062 5.507812 4.996094 5.5 4.945312 5.496094 C 4.761719 5.484375 4.570312 5.496094 4.375 5.535156 C 4.332031 5.542969 4.3125 5.570312 4.316406 5.609375 C 4.320312 5.824219 4.390625 6.027344 4.523438 6.210938 C 4.558594 6.257812 4.605469 6.285156 4.664062 6.285156 C 4.671875 6.289062 4.679688 6.285156 4.6875 6.277344 C 4.878906 6.101562 5.019531 5.882812 5.113281 5.621094 C 5.128906 5.574219 5.117188 5.542969 5.070312 5.523438 Z M 10.316406 5.652344 C 10.328125 5.660156 10.351562 5.636719 10.375 5.605469 C 10.394531 5.570312 10.402344 5.539062 10.390625 5.53125 C 10.378906 5.527344 10.355469 5.546875 10.332031 5.578125 C 10.3125 5.613281 10.304688 5.644531 10.316406 5.652344 Z M 2.589844 6.566406 L 2.511719 6.71875 C 2.492188 6.757812 2.484375 6.789062 2.484375 6.8125 C 2.484375 6.855469 2.507812 6.875 2.554688 6.867188 C 2.621094 6.859375 2.683594 6.839844 2.742188 6.8125 C 2.785156 6.792969 2.84375 6.773438 2.914062 6.761719 C 2.980469 6.75 3.039062 6.75 3.085938 6.761719 C 3.234375 6.792969 3.285156 6.898438 3.246094 7.078125 C 3.238281 7.113281 3.230469 7.148438 3.21875 7.183594 C 3.203125 7.246094 3.21875 7.289062 3.273438 7.3125 C 3.285156 7.316406 3.292969 7.316406 3.304688 7.3125 C 3.429688 7.242188 3.511719 7.203125 3.546875 7.195312 C 3.621094 7.179688 3.679688 7.148438 3.730469 7.09375 C 3.738281 7.089844 3.738281 7.078125 3.734375 7.070312 C 3.691406 6.992188 3.636719 6.925781 3.570312 6.867188 C 3.527344 6.828125 3.496094 6.777344 3.484375 6.71875 C 3.449219 6.574219 3.488281 6.449219 3.597656 6.347656 C 3.648438 6.300781 3.667969 6.242188 3.65625 6.164062 C 3.644531 6.101562 3.625 6.054688 3.589844 6.019531 C 3.582031 6.011719 3.574219 6.007812 3.5625 6.011719 C 3.488281 6.03125 3.414062 6.039062 3.335938 6.046875 C 3.285156 6.046875 3.238281 6.039062 3.203125 6.015625 C 3.164062 5.988281 3.128906 5.957031 3.09375 5.921875 C 3.042969 5.859375 2.976562 5.789062 2.886719 5.707031 C 2.828125 5.648438 2.746094 5.625 2.644531 5.632812 C 2.621094 5.636719 2.601562 5.65625 2.601562 5.679688 L 2.589844 5.875 C 2.585938 5.933594 2.554688 5.960938 2.492188 5.960938 C 2.414062 5.960938 2.335938 5.960938 2.257812 5.964844 C 2.175781 5.964844 2.121094 6.007812 2.09375 6.085938 C 2.0625 6.175781 2.082031 6.246094 2.148438 6.296875 C 2.191406 6.332031 2.242188 6.363281 2.296875 6.382812 C 2.382812 6.417969 2.472656 6.460938 2.566406 6.507812 C 2.585938 6.519531 2.597656 6.546875 2.589844 6.566406 Z M 6.242188 6.917969 C 6.265625 6.914062 6.28125 6.925781 6.289062 6.953125 C 6.34375 7.164062 6.386719 7.378906 6.421875 7.59375 C 6.445312 7.75 6.484375 7.890625 6.539062 8.011719 C 6.550781 8.046875 6.570312 8.070312 6.589844 8.085938 C 6.621094 8.109375 6.652344 8.113281 6.6875 8.097656 C 6.707031 8.089844 6.742188 8.066406 6.785156 8.03125 C 6.835938 7.988281 6.875 7.933594 6.898438 7.871094 C 6.910156 7.835938 6.917969 7.773438 6.917969 7.6875 C 6.914062 7.597656 6.921875 7.503906 6.941406 7.410156 C 6.945312 7.394531 6.9375 7.382812 6.925781 7.375 C 6.898438 7.363281 6.867188 7.351562 6.835938 7.339844 C 6.582031 7.273438 6.492188 7.121094 6.566406 6.890625 C 6.566406 6.890625 6.585938 6.851562 6.625 6.777344 C 6.652344 6.726562 6.65625 6.671875 6.640625 6.613281 C 6.625 6.554688 6.617188 6.523438 6.617188 6.523438 C 6.601562 6.414062 6.625 6.3125 6.683594 6.222656 C 6.714844 6.179688 6.703125 6.15625 6.648438 6.164062 L 6.40625 6.191406 C 6.375 6.195312 6.34375 6.179688 6.328125 6.152344 C 6.292969 6.085938 6.257812 6.023438 6.21875 5.960938 C 6.179688 5.898438 6.148438 5.859375 6.121094 5.839844 C 6.058594 5.800781 6 5.824219 5.945312 5.902344 C 5.902344 5.960938 5.882812 6.027344 5.882812 6.101562 C 5.886719 6.175781 5.882812 6.246094 5.871094 6.320312 C 5.867188 6.359375 5.855469 6.390625 5.832031 6.414062 C 5.804688 6.445312 5.777344 6.46875 5.753906 6.484375 C 5.683594 6.519531 5.675781 6.566406 5.71875 6.625 L 5.929688 6.910156 C 5.9375 6.921875 5.9375 6.933594 5.933594 6.945312 L 5.796875 7.144531 C 5.785156 7.160156 5.785156 7.179688 5.792969 7.199219 C 5.867188 7.351562 5.933594 7.507812 6 7.667969 C 6.03125 7.742188 6.101562 7.777344 6.203125 7.773438 C 6.210938 7.769531 6.21875 7.765625 6.226562 7.761719 C 6.230469 7.753906 6.234375 7.746094 6.234375 7.734375 C 6.203125 7.523438 6.1875 7.308594 6.1875 7.085938 C 6.1875 7.035156 6.199219 6.984375 6.222656 6.9375 C 6.226562 6.925781 6.234375 6.921875 6.242188 6.917969 Z M 10.054688 6.421875 C 10.050781 6.4375 10.050781 6.453125 10.058594 6.46875 C 10.058594 6.472656 10.0625 6.476562 10.066406 6.476562 C 10.070312 6.480469 10.074219 6.480469 10.074219 6.476562 L 10.410156 6.257812 C 10.417969 6.253906 10.421875 6.246094 10.417969 6.234375 C 10.40625 6.148438 10.378906 6.058594 10.339844 5.96875 C 10.339844 5.964844 10.332031 5.960938 10.328125 5.960938 C 10.320312 5.957031 10.3125 5.960938 10.308594 5.964844 C 10.230469 6.046875 10.140625 6.121094 10.039062 6.179688 C 10.03125 6.1875 10.027344 6.195312 10.03125 6.203125 C 10.042969 6.257812 10.054688 6.316406 10.058594 6.371094 C 10.058594 6.382812 10.058594 6.398438 10.054688 6.421875 Z M 8.542969 7.648438 C 8.554688 7.683594 8.570312 7.6875 8.585938 7.65625 C 8.589844 7.648438 8.59375 7.636719 8.597656 7.621094 C 8.640625 7.46875 8.675781 7.3125 8.703125 7.15625 C 8.707031 7.148438 8.703125 7.144531 8.703125 7.140625 C 8.699219 7.136719 8.691406 7.132812 8.6875 7.132812 L 8.472656 7.105469 C 8.429688 7.101562 8.40625 7.074219 8.398438 7.023438 C 8.375 6.859375 8.324219 6.699219 8.25 6.546875 C 8.230469 6.503906 8.199219 6.496094 8.15625 6.519531 C 8.109375 6.546875 8.058594 6.570312 8.007812 6.59375 C 7.957031 6.621094 7.910156 6.621094 7.867188 6.597656 C 7.847656 6.585938 7.824219 6.550781 7.792969 6.496094 C 7.71875 6.363281 7.625 6.246094 7.511719 6.140625 C 7.480469 6.117188 7.453125 6.105469 7.425781 6.105469 C 7.382812 6.105469 7.359375 6.136719 7.359375 6.195312 C 7.351562 6.265625 7.328125 6.320312 7.277344 6.359375 C 7.269531 6.363281 7.261719 6.367188 7.25 6.363281 C 7.207031 6.355469 7.164062 6.34375 7.125 6.328125 C 7.066406 6.300781 7.027344 6.292969 7.003906 6.296875 C 6.953125 6.304688 6.90625 6.339844 6.863281 6.402344 C 6.835938 6.441406 6.832031 6.480469 6.847656 6.53125 L 6.90625 6.722656 C 6.914062 6.757812 6.90625 6.789062 6.878906 6.820312 C 6.84375 6.859375 6.808594 6.902344 6.777344 6.945312 C 6.730469 7.007812 6.738281 7.054688 6.796875 7.085938 C 6.875 7.121094 6.996094 7.164062 7.164062 7.207031 C 7.230469 7.222656 7.257812 7.265625 7.246094 7.335938 C 7.238281 7.378906 7.214844 7.429688 7.171875 7.484375 C 7.132812 7.546875 7.125 7.621094 7.160156 7.703125 C 7.1875 7.773438 7.242188 7.800781 7.320312 7.789062 C 7.402344 7.769531 7.519531 7.738281 7.660156 7.6875 C 7.714844 7.667969 7.757812 7.660156 7.785156 7.664062 C 7.816406 7.667969 7.835938 7.691406 7.839844 7.71875 C 7.859375 7.847656 7.902344 7.921875 7.972656 7.949219 C 8.089844 7.988281 8.207031 7.996094 8.328125 7.96875 C 8.34375 7.964844 8.355469 7.957031 8.363281 7.941406 C 8.371094 7.929688 8.371094 7.914062 8.367188 7.898438 C 8.351562 7.855469 8.328125 7.808594 8.289062 7.753906 C 8.152344 7.566406 7.992188 7.394531 7.804688 7.25 C 7.738281 7.199219 7.683594 7.136719 7.636719 7.066406 C 7.628906 7.054688 7.625 7.042969 7.625 7.035156 C 7.628906 7.011719 7.640625 7.007812 7.671875 7.015625 C 7.9375 7.121094 8.171875 7.28125 8.378906 7.496094 C 8.425781 7.542969 8.472656 7.585938 8.523438 7.625 C 8.53125 7.632812 8.539062 7.640625 8.542969 7.648438 Z M 4.632812 6.714844 C 4.609375 6.695312 4.589844 6.671875 4.574219 6.644531 C 4.484375 6.480469 4.367188 6.332031 4.21875 6.207031 C 4.203125 6.191406 4.191406 6.195312 4.1875 6.21875 C 4.175781 6.277344 4.152344 6.320312 4.109375 6.355469 C 4.09375 6.367188 4.050781 6.386719 3.976562 6.410156 C 3.894531 6.441406 3.816406 6.476562 3.746094 6.527344 C 3.703125 6.554688 3.6875 6.589844 3.691406 6.628906 C 3.691406 6.652344 3.710938 6.683594 3.738281 6.714844 C 3.820312 6.808594 3.90625 6.902344 3.992188 6.996094 C 4 7.007812 4.015625 7.015625 4.027344 7.015625 C 4.171875 7.023438 4.308594 7.027344 4.4375 7.03125 C 4.574219 7.03125 4.710938 7.058594 4.847656 7.113281 C 4.859375 7.121094 4.875 7.117188 4.886719 7.109375 C 4.921875 7.082031 4.957031 7.054688 4.992188 7.035156 C 5.027344 7.015625 5.070312 7.007812 5.109375 7.011719 C 5.242188 7.027344 5.347656 7.097656 5.421875 7.226562 C 5.453125 7.269531 5.484375 7.28125 5.519531 7.253906 C 5.535156 7.242188 5.546875 7.21875 5.558594 7.1875 C 5.574219 7.113281 5.601562 7.042969 5.632812 6.976562 C 5.636719 6.964844 5.640625 6.957031 5.636719 6.945312 C 5.621094 6.863281 5.578125 6.808594 5.507812 6.773438 C 5.496094 6.769531 5.488281 6.765625 5.476562 6.769531 C 5.292969 6.828125 5.101562 6.847656 4.910156 6.828125 C 4.855469 6.824219 4.804688 6.8125 4.765625 6.796875 C 4.71875 6.773438 4.675781 6.75 4.632812 6.714844 Z M 10.867188 7.367188 C 11.027344 7.335938 11.195312 7.324219 11.378906 7.328125 C 11.402344 7.328125 11.421875 7.3125 11.421875 7.289062 C 11.421875 7.246094 11.421875 7.195312 11.421875 7.140625 C 11.421875 7.140625 11.421875 7.117188 11.417969 7.078125 C 11.410156 6.992188 11.445312 6.9375 11.515625 6.90625 C 11.609375 6.871094 11.671875 6.804688 11.703125 6.707031 C 11.722656 6.648438 11.703125 6.617188 11.640625 6.617188 C 11.550781 6.613281 11.449219 6.617188 11.328125 6.628906 C 11.238281 6.636719 11.167969 6.605469 11.113281 6.527344 C 11.078125 6.476562 11.03125 6.460938 10.980469 6.488281 L 10.6875 6.625 C 10.667969 6.636719 10.644531 6.632812 10.625 6.617188 L 10.488281 6.496094 C 10.480469 6.492188 10.46875 6.492188 10.457031 6.496094 C 10.371094 6.542969 10.292969 6.601562 10.226562 6.664062 C 10.179688 6.714844 10.128906 6.757812 10.070312 6.792969 C 10.011719 6.828125 9.976562 6.847656 9.964844 6.851562 C 9.921875 6.867188 9.878906 6.859375 9.835938 6.820312 C 9.824219 6.8125 9.808594 6.808594 9.792969 6.808594 C 9.777344 6.8125 9.765625 6.820312 9.753906 6.832031 C 9.65625 6.964844 9.585938 7.105469 9.539062 7.253906 C 9.527344 7.289062 9.539062 7.300781 9.574219 7.289062 C 9.847656 7.175781 10.121094 7.085938 10.40625 7.015625 C 10.515625 6.988281 10.628906 6.976562 10.742188 6.976562 C 10.78125 6.980469 10.789062 6.992188 10.765625 7.015625 C 10.71875 7.054688 10.667969 7.089844 10.609375 7.117188 C 10.441406 7.199219 10.269531 7.273438 10.097656 7.339844 C 9.917969 7.410156 9.761719 7.519531 9.636719 7.671875 C 9.636719 7.675781 9.632812 7.679688 9.636719 7.683594 C 9.636719 7.6875 9.636719 7.691406 9.640625 7.695312 C 9.777344 7.757812 9.914062 7.792969 10.0625 7.804688 C 10.128906 7.808594 10.171875 7.789062 10.191406 7.742188 C 10.191406 7.742188 10.195312 7.71875 10.199219 7.671875 C 10.207031 7.628906 10.234375 7.609375 10.289062 7.617188 C 10.488281 7.644531 10.683594 7.652344 10.878906 7.640625 C 10.890625 7.640625 10.902344 7.632812 10.90625 7.625 C 10.914062 7.613281 10.914062 7.601562 10.914062 7.589844 L 10.855469 7.382812 C 10.855469 7.378906 10.855469 7.375 10.859375 7.371094 C 10.859375 7.371094 10.863281 7.367188 10.867188 7.367188 Z M 9.070312 7.277344 C 9.0625 7.339844 9.066406 7.398438 9.082031 7.460938 C 9.085938 7.46875 9.09375 7.476562 9.101562 7.476562 C 9.167969 7.472656 9.214844 7.445312 9.246094 7.386719 C 9.300781 7.296875 9.332031 7.199219 9.339844 7.09375 C 9.339844 7.089844 9.339844 7.085938 9.335938 7.085938 C 9.332031 7.082031 9.328125 7.082031 9.328125 7.082031 C 9.253906 7.09375 9.191406 7.121094 9.136719 7.164062 C 9.097656 7.191406 9.078125 7.230469 9.070312 7.277344 Z M 12.109375 7.1875 C 12.015625 7.507812 12.066406 7.804688 12.257812 8.078125 C 12.265625 8.085938 12.273438 8.089844 12.28125 8.085938 C 12.367188 8.0625 12.449219 8.027344 12.53125 7.988281 C 12.601562 7.949219 12.660156 7.90625 12.707031 7.851562 C 12.761719 7.792969 12.800781 7.730469 12.828125 7.664062 C 12.859375 7.574219 12.917969 7.5 13 7.433594 C 13.003906 7.429688 13.007812 7.421875 13.007812 7.417969 C 13.007812 7.410156 13.003906 7.40625 13 7.402344 C 12.925781 7.351562 12.863281 7.308594 12.808594 7.269531 C 12.6875 7.183594 12.554688 7.140625 12.40625 7.136719 C 12.339844 7.136719 12.269531 7.132812 12.203125 7.125 C 12.15625 7.121094 12.125 7.140625 12.109375 7.1875 Z M 4.144531 7.234375 C 4.105469 7.222656 4.066406 7.222656 4.03125 7.234375 C 3.941406 7.261719 3.855469 7.300781 3.777344 7.355469 C 3.734375 7.382812 3.683594 7.398438 3.628906 7.402344 C 3.53125 7.40625 3.480469 7.449219 3.484375 7.523438 C 3.484375 7.542969 3.496094 7.59375 3.519531 7.679688 C 3.550781 7.800781 3.597656 7.914062 3.660156 8.023438 C 3.6875 8.078125 3.726562 8.125 3.769531 8.160156 C 3.816406 8.199219 3.863281 8.234375 3.914062 8.269531 C 3.925781 8.277344 3.945312 8.273438 3.953125 8.257812 C 4.074219 8.078125 4.183594 7.886719 4.289062 7.6875 C 4.292969 7.675781 4.292969 7.667969 4.289062 7.660156 C 4.214844 7.546875 4.183594 7.425781 4.191406 7.296875 C 4.195312 7.269531 4.175781 7.242188 4.144531 7.234375 Z M 5.125 8.007812 C 5.175781 8.007812 5.226562 8.023438 5.277344 8.054688 C 5.316406 8.082031 5.335938 8.09375 5.335938 8.09375 C 5.4375 8.15625 5.539062 8.21875 5.632812 8.289062 C 5.777344 8.390625 5.929688 8.484375 6.085938 8.570312 C 6.132812 8.59375 6.175781 8.609375 6.214844 8.613281 C 6.226562 8.613281 6.234375 8.613281 6.242188 8.605469 C 6.246094 8.601562 6.25 8.589844 6.25 8.582031 C 6.25 8.375 6.210938 8.179688 6.132812 8 C 6.132812 7.996094 6.128906 7.992188 6.121094 7.988281 C 6.117188 7.988281 6.109375 7.988281 6.105469 7.992188 C 6.0625 8.023438 6.027344 8.046875 6.003906 8.066406 C 5.949219 8.101562 5.910156 8.105469 5.882812 8.066406 C 5.871094 8.050781 5.859375 8.019531 5.851562 7.972656 C 5.828125 7.792969 5.773438 7.621094 5.683594 7.460938 C 5.667969 7.425781 5.648438 7.425781 5.628906 7.460938 C 5.601562 7.507812 5.574219 7.554688 5.546875 7.597656 C 5.535156 7.625 5.515625 7.640625 5.496094 7.648438 C 5.46875 7.660156 5.445312 7.660156 5.417969 7.652344 C 5.394531 7.640625 5.375 7.617188 5.359375 7.578125 C 5.339844 7.53125 5.324219 7.484375 5.304688 7.4375 C 5.269531 7.34375 5.21875 7.28125 5.148438 7.25 C 5.113281 7.234375 5.085938 7.242188 5.066406 7.28125 C 5.039062 7.339844 5 7.375 4.953125 7.386719 C 4.921875 7.394531 4.878906 7.386719 4.820312 7.359375 C 4.738281 7.316406 4.652344 7.277344 4.570312 7.242188 C 4.558594 7.238281 4.550781 7.234375 4.539062 7.238281 C 4.453125 7.253906 4.410156 7.296875 4.417969 7.375 C 4.417969 7.410156 4.433594 7.449219 4.460938 7.496094 C 4.488281 7.539062 4.511719 7.570312 4.539062 7.601562 C 4.65625 7.714844 4.636719 7.820312 4.484375 7.917969 C 4.433594 7.949219 4.429688 7.984375 4.476562 8.023438 C 4.519531 8.0625 4.578125 8.085938 4.65625 8.101562 C 4.722656 8.113281 4.765625 8.121094 4.777344 8.128906 C 4.828125 8.15625 4.847656 8.199219 4.839844 8.253906 C 4.835938 8.28125 4.820312 8.3125 4.796875 8.34375 C 4.78125 8.367188 4.761719 8.390625 4.738281 8.421875 C 4.722656 8.441406 4.722656 8.464844 4.738281 8.484375 C 4.765625 8.527344 4.808594 8.558594 4.867188 8.578125 C 4.9375 8.601562 5.074219 8.621094 5.273438 8.632812 C 5.320312 8.636719 5.355469 8.65625 5.375 8.691406 C 5.390625 8.71875 5.390625 8.753906 5.375 8.792969 C 5.363281 8.835938 5.34375 8.875 5.320312 8.914062 C 5.296875 8.949219 5.304688 8.976562 5.34375 8.996094 C 5.378906 9.015625 5.414062 9.023438 5.457031 9.027344 C 5.46875 9.027344 5.507812 9.023438 5.574219 9.023438 C 5.703125 9.015625 5.832031 8.988281 5.960938 8.941406 C 5.96875 8.9375 5.976562 8.929688 5.976562 8.921875 C 5.980469 8.914062 5.976562 8.902344 5.972656 8.898438 C 5.816406 8.710938 5.632812 8.550781 5.429688 8.414062 C 5.292969 8.320312 5.179688 8.203125 5.09375 8.058594 C 5.089844 8.050781 5.089844 8.039062 5.09375 8.027344 C 5.101562 8.015625 5.113281 8.007812 5.125 8.007812 Z M 1.628906 7.691406 C 1.59375 7.691406 1.570312 7.707031 1.558594 7.742188 C 1.539062 7.796875 1.539062 7.84375 1.5625 7.886719 C 1.574219 7.917969 1.605469 7.945312 1.648438 7.96875 C 1.683594 7.992188 1.71875 8.007812 1.757812 8.023438 C 1.84375 8.050781 1.917969 8.085938 1.988281 8.128906 C 2.039062 8.160156 2.050781 8.195312 2.023438 8.242188 L 1.917969 8.425781 C 1.914062 8.4375 1.910156 8.445312 1.917969 8.453125 C 1.945312 8.496094 1.984375 8.523438 2.035156 8.535156 C 2.066406 8.542969 2.113281 8.535156 2.164062 8.511719 C 2.214844 8.488281 2.269531 8.464844 2.320312 8.441406 C 2.382812 8.414062 2.4375 8.394531 2.480469 8.386719 C 2.667969 8.347656 2.847656 8.382812 3.023438 8.484375 C 3.027344 8.488281 3.035156 8.488281 3.039062 8.484375 C 3.046875 8.484375 3.050781 8.476562 3.050781 8.46875 L 3.089844 8.164062 C 3.09375 8.152344 3.085938 8.144531 3.078125 8.140625 C 3.042969 8.121094 3 8.113281 2.957031 8.109375 C 2.902344 8.105469 2.875 8.105469 2.871094 8.105469 C 2.730469 8.085938 2.585938 8.074219 2.445312 8.0625 C 2.394531 8.058594 2.34375 8.050781 2.296875 8.03125 C 2.242188 8.011719 2.242188 7.992188 2.296875 7.96875 C 2.382812 7.941406 2.464844 7.925781 2.554688 7.921875 C 2.644531 7.917969 2.691406 7.917969 2.695312 7.917969 C 2.90625 7.902344 3.117188 7.914062 3.320312 7.953125 C 3.367188 7.960938 3.378906 7.941406 3.367188 7.902344 C 3.289062 7.691406 3.164062 7.519531 2.992188 7.382812 C 2.929688 7.332031 2.882812 7.339844 2.84375 7.40625 C 2.828125 7.433594 2.816406 7.460938 2.808594 7.492188 C 2.785156 7.570312 2.734375 7.597656 2.65625 7.574219 C 2.582031 7.550781 2.53125 7.523438 2.5 7.5 C 2.425781 7.429688 2.34375 7.375 2.25 7.335938 C 2.210938 7.316406 2.175781 7.3125 2.148438 7.320312 C 2.105469 7.339844 2.089844 7.378906 2.109375 7.449219 C 2.117188 7.476562 2.121094 7.507812 2.125 7.539062 C 2.136719 7.644531 2.09375 7.695312 1.992188 7.699219 C 1.878906 7.699219 1.757812 7.699219 1.628906 7.691406 Z M 8.644531 10.671875 C 8.675781 10.757812 8.695312 10.851562 8.703125 10.953125 C 8.710938 11.042969 8.742188 11.328125 8.792969 11.8125 C 8.808594 11.96875 8.84375 12.117188 8.894531 12.261719 C 8.980469 12.503906 9.128906 12.6875 9.351562 12.816406 C 9.457031 12.878906 9.566406 12.933594 9.679688 12.984375 C 9.785156 13.035156 9.886719 13.097656 9.980469 13.167969 C 10.058594 13.226562 10.113281 13.308594 10.144531 13.414062 C 10.152344 13.441406 10.179688 13.460938 10.210938 13.457031 C 10.371094 13.441406 10.515625 13.453125 10.648438 13.492188 C 10.753906 13.523438 10.851562 13.515625 10.949219 13.460938 C 10.980469 13.445312 10.980469 13.425781 10.949219 13.410156 C 10.800781 13.328125 10.644531 13.25 10.480469 13.183594 C 10.246094 13.089844 10.015625 12.976562 9.792969 12.855469 C 9.457031 12.664062 9.21875 12.402344 9.085938 12.0625 C 9.019531 11.902344 8.976562 11.699219 8.960938 11.453125 C 8.941406 11.191406 8.949219 10.925781 8.976562 10.664062 C 9.019531 10.257812 9.175781 9.90625 9.441406 9.617188 C 9.539062 9.507812 9.640625 9.410156 9.738281 9.332031 C 9.847656 9.246094 9.964844 9.171875 10.09375 9.117188 C 10.105469 9.109375 10.117188 9.105469 10.125 9.097656 C 10.152344 9.074219 10.132812 9.066406 10.070312 9.074219 C 9.976562 9.085938 9.882812 9.101562 9.789062 9.113281 C 9.679688 9.132812 9.636719 9.085938 9.660156 8.984375 C 9.667969 8.949219 9.679688 8.90625 9.691406 8.859375 C 9.699219 8.824219 9.691406 8.820312 9.671875 8.847656 C 9.503906 9.042969 9.339844 9.238281 9.179688 9.433594 C 9.152344 9.46875 9.125 9.492188 9.105469 9.503906 C 9.054688 9.535156 9.019531 9.527344 8.992188 9.484375 C 8.976562 9.460938 8.96875 9.421875 8.976562 9.367188 C 8.996094 9.171875 9.011719 8.972656 9.03125 8.773438 C 9.050781 8.546875 9.082031 8.375 9.117188 8.25 C 9.179688 8.042969 9.265625 7.847656 9.378906 7.664062 C 9.40625 7.617188 9.398438 7.605469 9.351562 7.628906 C 9.265625 7.667969 9.183594 7.703125 9.097656 7.734375 C 9.09375 7.734375 9.078125 7.742188 9.046875 7.757812 C 8.972656 7.789062 8.925781 7.761719 8.898438 7.683594 C 8.882812 7.636719 8.871094 7.589844 8.859375 7.542969 C 8.855469 7.515625 8.847656 7.515625 8.84375 7.542969 C 8.820312 7.644531 8.792969 7.742188 8.761719 7.84375 C 8.75 7.886719 8.710938 7.90625 8.648438 7.90625 C 8.636719 7.90625 8.621094 7.914062 8.617188 7.921875 C 8.609375 7.933594 8.605469 7.949219 8.613281 7.960938 C 8.640625 8.027344 8.660156 8.097656 8.671875 8.171875 C 8.726562 8.519531 8.714844 8.867188 8.632812 9.210938 C 8.597656 9.371094 8.550781 9.503906 8.496094 9.609375 C 8.472656 9.652344 8.449219 9.679688 8.429688 9.691406 C 8.386719 9.714844 8.347656 9.699219 8.308594 9.644531 C 8.214844 9.511719 8.128906 9.378906 8.046875 9.242188 C 7.921875 9.03125 7.84375 8.890625 7.808594 8.824219 C 7.699219 8.601562 7.636719 8.359375 7.621094 8.101562 C 7.621094 8.058594 7.617188 8.023438 7.609375 7.996094 C 7.609375 7.984375 7.601562 7.972656 7.589844 7.964844 C 7.582031 7.960938 7.566406 7.957031 7.554688 7.960938 C 7.484375 7.976562 7.414062 7.984375 7.34375 7.980469 C 7.15625 7.972656 7.011719 8.054688 6.902344 8.226562 C 6.898438 8.234375 6.898438 8.242188 6.902344 8.246094 C 6.90625 8.253906 6.910156 8.257812 6.914062 8.257812 C 7.246094 8.34375 7.488281 8.539062 7.644531 8.839844 C 7.714844 8.972656 7.769531 9.128906 7.804688 9.3125 C 7.878906 9.65625 7.910156 9.988281 7.894531 10.308594 C 7.890625 10.398438 7.882812 10.460938 7.871094 10.503906 C 7.835938 10.601562 7.773438 10.640625 7.679688 10.609375 C 7.625 10.59375 7.558594 10.554688 7.480469 10.488281 C 7.230469 10.277344 7.027344 10.027344 6.871094 9.738281 C 6.800781 9.609375 6.757812 9.492188 6.742188 9.375 C 6.722656 9.277344 6.710938 9.125 6.699219 8.921875 C 6.691406 8.777344 6.664062 8.636719 6.625 8.5 C 6.601562 8.425781 6.566406 8.363281 6.515625 8.304688 C 6.488281 8.273438 6.472656 8.273438 6.460938 8.300781 C 6.457031 8.3125 6.457031 8.324219 6.457031 8.34375 C 6.472656 8.523438 6.476562 8.628906 6.460938 8.664062 C 6.417969 8.765625 6.339844 8.816406 6.226562 8.820312 C 6.214844 8.820312 6.207031 8.824219 6.203125 8.832031 C 6.195312 8.839844 6.195312 8.851562 6.199219 8.859375 C 6.238281 8.980469 6.207031 9.0625 6.101562 9.113281 C 6.027344 9.148438 5.957031 9.175781 5.886719 9.195312 C 5.828125 9.210938 5.824219 9.230469 5.878906 9.257812 C 6.039062 9.339844 6.179688 9.445312 6.300781 9.574219 C 6.507812 9.804688 6.6875 10.058594 6.828125 10.335938 C 6.882812 10.433594 7.070312 10.742188 7.390625 11.257812 C 7.433594 11.328125 7.460938 11.398438 7.480469 11.472656 C 7.496094 11.539062 7.5 11.613281 7.480469 11.699219 C 7.414062 12.070312 7.242188 12.394531 6.96875 12.664062 C 6.867188 12.765625 6.769531 12.839844 6.679688 12.890625 C 6.324219 13.070312 5.976562 13.257812 5.632812 13.453125 C 5.625 13.460938 5.617188 13.46875 5.621094 13.476562 C 5.625 13.488281 5.632812 13.488281 5.644531 13.484375 C 5.65625 13.476562 5.664062 13.472656 5.667969 13.472656 C 5.832031 13.4375 5.992188 13.445312 6.148438 13.5 C 6.210938 13.527344 6.261719 13.511719 6.304688 13.460938 C 6.394531 13.34375 6.511719 13.257812 6.660156 13.210938 C 6.710938 13.191406 6.792969 13.179688 6.902344 13.167969 C 6.984375 13.164062 7.066406 13.15625 7.152344 13.144531 C 7.179688 13.140625 7.203125 13.125 7.214844 13.097656 C 7.347656 12.804688 7.484375 12.53125 7.617188 12.277344 C 7.660156 12.199219 7.710938 12.121094 7.765625 12.046875 C 7.785156 12.023438 7.800781 12.027344 7.804688 12.058594 C 7.8125 12.097656 7.816406 12.136719 7.808594 12.179688 C 7.785156 12.34375 7.738281 12.5 7.667969 12.652344 C 7.617188 12.761719 7.5625 12.875 7.507812 12.984375 C 7.449219 13.109375 7.410156 13.234375 7.390625 13.363281 C 7.386719 13.40625 7.402344 13.433594 7.445312 13.445312 L 7.695312 13.515625 C 7.722656 13.519531 7.75 13.507812 7.761719 13.484375 C 7.820312 13.367188 7.898438 13.261719 7.992188 13.171875 C 8.136719 13.027344 8.292969 12.992188 8.464844 13.0625 C 8.535156 13.089844 8.589844 13.132812 8.632812 13.191406 C 8.671875 13.25 8.707031 13.316406 8.726562 13.390625 C 8.734375 13.414062 8.757812 13.433594 8.78125 13.433594 C 8.902344 13.441406 9.015625 13.464844 9.121094 13.492188 C 9.179688 13.507812 9.230469 13.515625 9.269531 13.511719 C 9.3125 13.503906 9.363281 13.496094 9.421875 13.484375 C 9.507812 13.46875 9.632812 13.464844 9.789062 13.480469 C 9.808594 13.484375 9.828125 13.480469 9.851562 13.476562 C 9.867188 13.472656 9.886719 13.46875 9.910156 13.46875 C 9.941406 13.460938 9.945312 13.449219 9.921875 13.425781 C 9.832031 13.335938 9.734375 13.265625 9.628906 13.214844 C 9.460938 13.132812 9.296875 13.039062 9.144531 12.933594 C 8.933594 12.792969 8.785156 12.605469 8.699219 12.367188 C 8.644531 12.214844 8.605469 12.03125 8.578125 11.820312 C 8.53125 11.421875 8.535156 11.050781 8.59375 10.695312 C 8.597656 10.675781 8.609375 10.660156 8.625 10.660156 C 8.632812 10.65625 8.640625 10.664062 8.644531 10.671875 Z M 10.632812 8.429688 C 10.679688 8.40625 10.730469 8.390625 10.792969 8.375 C 10.894531 8.355469 10.992188 8.320312 11.085938 8.277344 C 11.1875 8.226562 11.203125 8.152344 11.132812 8.054688 C 11.105469 8.011719 11.09375 7.964844 11.101562 7.914062 C 11.105469 7.878906 11.128906 7.839844 11.164062 7.792969 C 11.210938 7.742188 11.253906 7.6875 11.296875 7.628906 C 11.300781 7.621094 11.304688 7.609375 11.300781 7.597656 C 11.296875 7.585938 11.289062 7.578125 11.28125 7.574219 C 11.253906 7.5625 11.230469 7.558594 11.210938 7.566406 C 11.195312 7.570312 11.179688 7.585938 11.167969 7.609375 C 11.09375 7.773438 10.96875 7.855469 10.796875 7.867188 C 10.753906 7.871094 10.695312 7.871094 10.625 7.867188 C 10.574219 7.863281 10.515625 7.855469 10.453125 7.84375 C 10.417969 7.839844 10.390625 7.851562 10.375 7.886719 C 10.339844 7.964844 10.28125 8.007812 10.195312 8.019531 C 10.148438 8.023438 10.089844 8.027344 10.019531 8.035156 C 9.988281 8.035156 9.960938 8.054688 9.945312 8.082031 C 9.910156 8.144531 9.851562 8.199219 9.777344 8.246094 C 9.671875 8.308594 9.617188 8.40625 9.617188 8.535156 C 9.617188 8.558594 9.625 8.5625 9.644531 8.546875 C 9.859375 8.347656 10.113281 8.203125 10.410156 8.105469 C 10.445312 8.09375 10.480469 8.089844 10.515625 8.09375 C 10.554688 8.097656 10.574219 8.113281 10.578125 8.140625 C 10.578125 8.148438 10.574219 8.15625 10.566406 8.164062 C 10.492188 8.238281 10.410156 8.300781 10.324219 8.359375 C 10.242188 8.410156 10.183594 8.457031 10.152344 8.496094 C 10.066406 8.59375 10 8.703125 9.949219 8.828125 C 9.949219 8.835938 9.949219 8.84375 9.953125 8.851562 C 9.957031 8.855469 9.964844 8.859375 9.972656 8.859375 C 10.214844 8.851562 10.445312 8.808594 10.660156 8.734375 C 10.667969 8.734375 10.671875 8.726562 10.675781 8.71875 C 10.679688 8.710938 10.675781 8.703125 10.671875 8.695312 C 10.632812 8.640625 10.609375 8.578125 10.597656 8.503906 C 10.59375 8.472656 10.609375 8.445312 10.632812 8.429688 Z M 12.886719 8.050781 C 13.011719 8.082031 13.128906 8.105469 13.242188 8.128906 C 13.324219 8.144531 13.402344 8.171875 13.476562 8.214844 C 13.519531 8.238281 13.515625 8.253906 13.46875 8.269531 C 13.425781 8.285156 13.378906 8.289062 13.324219 8.28125 C 13.265625 8.273438 13.238281 8.269531 13.238281 8.269531 C 13.078125 8.257812 12.878906 8.25 12.632812 8.242188 C 12.550781 8.238281 12.472656 8.25 12.40625 8.269531 C 12.390625 8.273438 12.378906 8.28125 12.371094 8.292969 C 12.363281 8.308594 12.363281 8.324219 12.371094 8.339844 C 12.378906 8.347656 12.386719 8.351562 12.398438 8.351562 C 12.507812 8.363281 12.636719 8.359375 12.789062 8.335938 C 12.859375 8.328125 12.914062 8.34375 12.957031 8.386719 C 13 8.421875 13.035156 8.464844 13.0625 8.515625 C 13.089844 8.566406 13.097656 8.625 13.085938 8.6875 C 13.066406 8.789062 13.117188 8.855469 13.238281 8.886719 C 13.246094 8.886719 13.253906 8.886719 13.261719 8.882812 C 13.269531 8.878906 13.273438 8.871094 13.273438 8.863281 C 13.296875 8.761719 13.367188 8.726562 13.488281 8.761719 C 13.570312 8.785156 13.664062 8.820312 13.761719 8.859375 C 13.800781 8.875 13.828125 8.863281 13.84375 8.828125 C 13.878906 8.753906 13.898438 8.675781 13.910156 8.59375 C 13.914062 8.5625 13.941406 8.539062 13.972656 8.539062 C 14.054688 8.539062 14.136719 8.535156 14.210938 8.523438 C 14.316406 8.515625 14.367188 8.507812 14.367188 8.507812 C 14.425781 8.492188 14.460938 8.445312 14.476562 8.371094 C 14.484375 8.332031 14.476562 8.296875 14.453125 8.265625 C 14.398438 8.199219 14.324219 8.15625 14.234375 8.140625 C 14.136719 8.121094 14.046875 8.089844 13.960938 8.054688 C 13.921875 8.039062 13.90625 8.011719 13.914062 7.96875 C 13.925781 7.910156 13.929688 7.847656 13.925781 7.789062 C 13.925781 7.722656 13.902344 7.683594 13.851562 7.667969 C 13.824219 7.664062 13.785156 7.667969 13.734375 7.6875 C 13.597656 7.742188 13.457031 7.804688 13.320312 7.878906 C 13.277344 7.902344 13.238281 7.898438 13.199219 7.867188 C 13.160156 7.835938 13.132812 7.78125 13.105469 7.710938 C 13.089844 7.664062 13.070312 7.664062 13.046875 7.707031 L 12.875 8.027344 C 12.871094 8.03125 12.871094 8.039062 12.875 8.042969 C 12.875 8.046875 12.878906 8.050781 12.886719 8.050781 Z M 9.496094 7.902344 C 9.328125 8.210938 9.242188 8.539062 9.234375 8.886719 C 9.234375 8.894531 9.230469 8.90625 9.226562 8.925781 C 9.222656 8.941406 9.222656 8.953125 9.222656 8.96875 C 9.226562 8.980469 9.230469 8.980469 9.238281 8.972656 C 9.308594 8.917969 9.363281 8.851562 9.414062 8.777344 C 9.433594 8.75 9.441406 8.710938 9.433594 8.671875 L 9.40625 8.414062 C 9.402344 8.359375 9.417969 8.308594 9.453125 8.261719 C 9.523438 8.167969 9.609375 8.09375 9.710938 8.035156 C 9.761719 8.003906 9.761719 7.980469 9.707031 7.957031 L 9.527344 7.886719 C 9.515625 7.882812 9.503906 7.890625 9.496094 7.902344 Z M 8.34375 9.292969 C 8.359375 9.316406 8.371094 9.3125 8.378906 9.289062 C 8.484375 8.960938 8.515625 8.617188 8.480469 8.257812 C 8.476562 8.214844 8.449219 8.191406 8.402344 8.1875 L 7.875 8.15625 C 7.867188 8.15625 7.863281 8.15625 7.863281 8.160156 C 7.859375 8.164062 7.855469 8.164062 7.855469 8.167969 C 7.855469 8.289062 7.875 8.40625 7.914062 8.519531 C 7.933594 8.574219 7.988281 8.683594 8.070312 8.84375 C 8.152344 9 8.246094 9.148438 8.34375 9.292969 Z M 3.710938 9.332031 C 3.792969 9.257812 3.894531 9.203125 4.019531 9.175781 C 4.03125 9.171875 4.039062 9.164062 4.039062 9.152344 C 4.042969 9.082031 4.058594 9.023438 4.085938 8.972656 C 4.09375 8.957031 4.089844 8.9375 4.074219 8.929688 C 3.921875 8.835938 3.839844 8.707031 3.828125 8.539062 C 3.828125 8.527344 3.824219 8.519531 3.820312 8.511719 C 3.710938 8.367188 3.582031 8.285156 3.429688 8.265625 C 3.308594 8.25 3.253906 8.304688 3.253906 8.421875 C 3.253906 8.503906 3.25 8.585938 3.234375 8.667969 C 3.226562 8.722656 3.195312 8.746094 3.140625 8.75 C 3.066406 8.75 2.996094 8.730469 2.933594 8.691406 C 2.867188 8.652344 2.796875 8.617188 2.726562 8.578125 C 2.675781 8.550781 2.644531 8.5625 2.632812 8.617188 C 2.628906 8.648438 2.628906 8.679688 2.632812 8.722656 C 2.636719 8.769531 2.640625 8.804688 2.636719 8.824219 C 2.621094 8.910156 2.574219 8.972656 2.488281 9.007812 C 2.402344 9.046875 2.351562 9.070312 2.335938 9.078125 C 2.273438 9.125 2.265625 9.175781 2.324219 9.234375 C 2.355469 9.265625 2.390625 9.285156 2.4375 9.292969 C 2.507812 9.308594 2.589844 9.316406 2.679688 9.320312 C 2.757812 9.324219 2.808594 9.355469 2.828125 9.414062 C 2.847656 9.476562 2.871094 9.539062 2.898438 9.601562 C 2.925781 9.675781 2.980469 9.699219 3.054688 9.675781 C 3.097656 9.664062 3.152344 9.632812 3.21875 9.585938 C 3.296875 9.539062 3.378906 9.484375 3.46875 9.433594 C 3.496094 9.417969 3.53125 9.414062 3.5625 9.429688 C 3.609375 9.449219 3.636719 9.441406 3.65625 9.40625 C 3.667969 9.378906 3.6875 9.351562 3.710938 9.332031 Z M 10.886719 8.648438 C 10.90625 8.65625 10.925781 8.664062 10.945312 8.667969 C 10.964844 8.671875 10.984375 8.671875 11.007812 8.667969 C 11.117188 8.660156 11.230469 8.660156 11.34375 8.671875 C 11.449219 8.683594 11.519531 8.75 11.558594 8.875 C 11.570312 8.917969 11.601562 8.945312 11.648438 8.949219 C 11.738281 8.964844 11.839844 8.984375 11.945312 9.007812 C 12.035156 9.03125 12.097656 9.058594 12.132812 9.089844 C 12.191406 9.144531 12.207031 9.222656 12.175781 9.316406 C 12.164062 9.367188 12.179688 9.398438 12.226562 9.414062 C 12.328125 9.441406 12.429688 9.464844 12.53125 9.484375 C 12.578125 9.492188 12.613281 9.480469 12.640625 9.449219 C 12.648438 9.441406 12.664062 9.410156 12.679688 9.351562 C 12.707031 9.269531 12.773438 9.234375 12.875 9.242188 C 12.949219 9.25 13.011719 9.238281 13.0625 9.207031 C 13.105469 9.183594 13.113281 9.152344 13.085938 9.109375 C 13.050781 9.054688 13 9.015625 12.9375 8.996094 C 12.851562 8.964844 12.820312 8.902344 12.851562 8.8125 C 12.859375 8.777344 12.863281 8.710938 12.855469 8.617188 C 12.855469 8.605469 12.847656 8.597656 12.839844 8.59375 C 12.792969 8.574219 12.746094 8.570312 12.695312 8.578125 C 12.523438 8.609375 12.355469 8.59375 12.191406 8.53125 C 12.179688 8.527344 12.167969 8.523438 12.15625 8.527344 C 11.847656 8.578125 11.5625 8.554688 11.304688 8.460938 C 11.285156 8.457031 11.261719 8.457031 11.242188 8.464844 C 11.144531 8.507812 11.046875 8.539062 10.945312 8.554688 C 10.914062 8.5625 10.890625 8.574219 10.875 8.59375 C 10.867188 8.601562 10.863281 8.613281 10.867188 8.625 C 10.867188 8.636719 10.878906 8.644531 10.886719 8.648438 Z M 7.582031 10.277344 C 7.609375 10.300781 7.636719 10.328125 7.667969 10.359375 C 7.679688 10.371094 7.6875 10.371094 7.6875 10.351562 C 7.6875 10.019531 7.65625 9.695312 7.597656 9.375 C 7.558594 9.160156 7.492188 8.988281 7.398438 8.851562 C 7.269531 8.671875 7.097656 8.546875 6.886719 8.476562 C 6.878906 8.476562 6.871094 8.476562 6.867188 8.480469 C 6.859375 8.484375 6.859375 8.492188 6.859375 8.5 C 6.890625 8.722656 6.914062 8.945312 6.9375 9.164062 C 6.960938 9.398438 7.027344 9.601562 7.140625 9.78125 C 7.253906 9.953125 7.398438 10.117188 7.582031 10.277344 Z M 3.765625 10.078125 C 3.726562 10.109375 3.695312 10.144531 3.667969 10.183594 C 3.632812 10.234375 3.613281 10.265625 3.609375 10.277344 C 3.589844 10.320312 3.59375 10.359375 3.625 10.398438 C 3.640625 10.421875 3.671875 10.429688 3.703125 10.417969 L 4.257812 10.226562 C 4.296875 10.214844 4.328125 10.222656 4.351562 10.257812 C 4.386719 10.300781 4.417969 10.34375 4.445312 10.398438 C 4.484375 10.460938 4.535156 10.476562 4.601562 10.445312 C 4.648438 10.421875 4.6875 10.394531 4.71875 10.367188 C 4.742188 10.347656 4.769531 10.308594 4.796875 10.257812 C 4.851562 10.152344 4.90625 10.046875 4.964844 9.945312 C 5.007812 9.867188 5.046875 9.820312 5.085938 9.804688 C 5.148438 9.777344 5.21875 9.804688 5.292969 9.886719 C 5.300781 9.894531 5.3125 9.898438 5.320312 9.898438 C 5.332031 9.894531 5.339844 9.890625 5.347656 9.882812 C 5.453125 9.71875 5.519531 9.554688 5.546875 9.398438 C 5.546875 9.386719 5.542969 9.371094 5.53125 9.363281 C 5.523438 9.355469 5.507812 9.351562 5.496094 9.359375 C 5.160156 9.476562 4.851562 9.617188 4.5625 9.78125 C 4.523438 9.800781 4.46875 9.820312 4.398438 9.839844 C 4.386719 9.84375 4.375 9.84375 4.367188 9.835938 C 4.332031 9.820312 4.335938 9.792969 4.375 9.757812 C 4.613281 9.53125 4.878906 9.351562 5.167969 9.214844 C 5.175781 9.210938 5.183594 9.199219 5.1875 9.191406 C 5.1875 9.179688 5.183594 9.171875 5.175781 9.164062 C 5.109375 9.097656 5.074219 9.027344 5.078125 8.945312 C 5.078125 8.941406 5.078125 8.933594 5.082031 8.914062 C 5.089844 8.859375 5.050781 8.835938 4.964844 8.847656 C 4.914062 8.851562 4.898438 8.878906 4.914062 8.925781 C 4.929688 8.96875 4.945312 9.011719 4.953125 9.054688 C 4.96875 9.101562 4.964844 9.136719 4.945312 9.160156 C 4.925781 9.1875 4.898438 9.203125 4.867188 9.203125 C 4.84375 9.207031 4.816406 9.199219 4.78125 9.183594 C 4.621094 9.117188 4.503906 9.078125 4.429688 9.070312 C 4.308594 9.058594 4.269531 9.089844 4.316406 9.167969 C 4.34375 9.214844 4.355469 9.234375 4.355469 9.238281 C 4.398438 9.332031 4.371094 9.382812 4.269531 9.390625 C 4.207031 9.398438 4.171875 9.398438 4.171875 9.398438 C 4.136719 9.40625 4.09375 9.410156 4.039062 9.414062 C 3.964844 9.421875 3.902344 9.453125 3.859375 9.511719 C 3.832031 9.546875 3.820312 9.582031 3.824219 9.621094 C 3.824219 9.660156 3.839844 9.699219 3.867188 9.734375 C 3.910156 9.796875 3.910156 9.859375 3.871094 9.925781 C 3.824219 10.007812 3.789062 10.054688 3.765625 10.078125 Z M 11.347656 9.078125 C 11.320312 9.023438 11.316406 8.96875 11.328125 8.90625 C 11.332031 8.902344 11.328125 8.898438 11.328125 8.898438 C 11.324219 8.894531 11.320312 8.890625 11.316406 8.890625 C 11.117188 8.867188 10.929688 8.886719 10.753906 8.945312 C 10.703125 8.964844 10.703125 8.984375 10.746094 9.007812 C 10.898438 9.089844 11.035156 9.1875 11.160156 9.300781 C 11.242188 9.371094 11.300781 9.453125 11.339844 9.546875 C 11.355469 9.585938 11.34375 9.601562 11.304688 9.59375 C 11.238281 9.582031 11.175781 9.558594 11.121094 9.519531 C 10.925781 9.382812 10.714844 9.265625 10.492188 9.171875 C 10.480469 9.167969 10.46875 9.167969 10.457031 9.175781 C 10.449219 9.183594 10.441406 9.195312 10.445312 9.207031 C 10.460938 9.378906 10.503906 9.542969 10.570312 9.691406 C 10.574219 9.699219 10.582031 9.703125 10.589844 9.707031 C 10.597656 9.707031 10.605469 9.707031 10.613281 9.703125 C 10.683594 9.648438 10.742188 9.652344 10.792969 9.714844 C 10.847656 9.777344 10.878906 9.820312 10.890625 9.84375 C 10.9375 9.960938 11.007812 10.085938 11.09375 10.21875 C 11.125 10.265625 11.167969 10.273438 11.214844 10.246094 C 11.242188 10.230469 11.277344 10.195312 11.324219 10.140625 C 11.359375 10.09375 11.402344 10.085938 11.445312 10.121094 L 11.722656 10.332031 C 11.785156 10.382812 11.839844 10.378906 11.890625 10.320312 C 11.960938 10.234375 12.066406 10.203125 12.210938 10.21875 C 12.457031 10.25 12.5 10.183594 12.34375 10.019531 C 12.34375 10.019531 12.335938 10.011719 12.324219 10 C 12.246094 9.925781 12.238281 9.835938 12.308594 9.730469 C 12.316406 9.71875 12.316406 9.707031 12.3125 9.691406 C 12.308594 9.679688 12.300781 9.667969 12.285156 9.664062 C 12.214844 9.636719 12.132812 9.605469 12.042969 9.570312 C 11.96875 9.546875 11.9375 9.492188 11.945312 9.414062 C 11.949219 9.371094 11.953125 9.332031 11.953125 9.296875 C 11.953125 9.25 11.929688 9.21875 11.882812 9.210938 C 11.828125 9.199219 11.773438 9.191406 11.71875 9.179688 C 11.714844 9.179688 11.675781 9.175781 11.59375 9.167969 C 11.515625 9.160156 11.4375 9.136719 11.367188 9.097656 C 11.359375 9.09375 11.351562 9.085938 11.347656 9.078125 Z M 8.054688 13.449219 L 8.503906 13.515625 C 8.507812 13.519531 8.515625 13.515625 8.519531 13.511719 C 8.523438 13.507812 8.523438 13.5 8.523438 13.496094 C 8.515625 13.417969 8.488281 13.359375 8.4375 13.3125 C 8.390625 13.265625 8.332031 13.25 8.265625 13.261719 C 8.171875 13.28125 8.097656 13.332031 8.042969 13.421875 C 8.042969 13.425781 8.039062 13.433594 8.042969 13.4375 C 8.046875 13.445312 8.050781 13.449219 8.054688 13.449219 Z M 6.738281 13.453125 C 6.859375 13.503906 6.980469 13.515625 7.105469 13.488281 C 7.171875 13.472656 7.1875 13.449219 7.160156 13.410156 C 7.152344 13.402344 7.144531 13.398438 7.132812 13.394531 C 7 13.367188 6.867188 13.378906 6.738281 13.421875 C 6.710938 13.433594 6.710938 13.441406 6.738281 13.453125 Z M 3.945312 14.507812 C 4 14.558594 4.078125 14.59375 4.179688 14.609375 C 4.335938 14.632812 4.484375 14.609375 4.632812 14.535156 C 4.671875 14.515625 4.707031 14.515625 4.746094 14.53125 C 4.894531 14.601562 5.058594 14.628906 5.234375 14.609375 C 5.246094 14.609375 5.257812 14.601562 5.265625 14.589844 C 5.269531 14.578125 5.269531 14.5625 5.261719 14.550781 C 5.132812 14.339844 4.988281 14.132812 4.828125 13.929688 C 4.695312 13.757812 4.511719 13.667969 4.28125 13.664062 C 4.148438 13.660156 4.035156 13.695312 3.945312 13.765625 C 3.859375 13.832031 3.804688 13.925781 3.777344 14.046875 C 3.742188 14.21875 3.796875 14.371094 3.945312 14.507812 Z M 8.054688 14.609375 C 8.128906 14.625 8.195312 14.617188 8.242188 14.59375 C 8.246094 14.589844 8.25 14.589844 8.25 14.585938 C 8.253906 14.582031 8.253906 14.574219 8.25 14.570312 C 8.136719 14.359375 8.003906 14.160156 7.855469 13.972656 C 7.742188 13.828125 7.648438 13.742188 7.566406 13.703125 C 7.4375 13.644531 7.292969 13.65625 7.136719 13.734375 C 7.0625 13.773438 6.992188 13.777344 6.921875 13.75 C 6.789062 13.6875 6.648438 13.664062 6.5 13.679688 C 6.492188 13.679688 6.484375 13.683594 6.480469 13.691406 C 6.476562 13.699219 6.476562 13.707031 6.480469 13.714844 C 6.621094 13.941406 6.773438 14.164062 6.9375 14.382812 C 7.121094 14.617188 7.34375 14.675781 7.609375 14.566406 C 7.671875 14.542969 7.714844 14.527344 7.738281 14.527344 C 7.785156 14.527344 7.828125 14.539062 7.871094 14.5625 C 7.902344 14.582031 7.960938 14.597656 8.054688 14.609375 Z M 10.0625 14.523438 C 10.195312 14.617188 10.339844 14.640625 10.5 14.601562 C 10.5 14.601562 10.539062 14.585938 10.617188 14.554688 C 10.691406 14.527344 10.765625 14.527344 10.835938 14.554688 C 10.957031 14.601562 11.070312 14.625 11.171875 14.613281 C 11.242188 14.609375 11.257812 14.574219 11.21875 14.507812 C 11.097656 14.308594 10.976562 14.128906 10.855469 13.972656 C 10.746094 13.832031 10.65625 13.746094 10.578125 13.707031 C 10.453125 13.644531 10.316406 13.644531 10.164062 13.710938 C 10.121094 13.734375 10.078125 13.75 10.042969 13.757812 C 10.007812 13.765625 9.964844 13.757812 9.914062 13.742188 C 9.84375 13.714844 9.769531 13.691406 9.695312 13.675781 C 9.636719 13.664062 9.578125 13.667969 9.515625 13.6875 C 9.476562 13.699219 9.464844 13.722656 9.488281 13.761719 C 9.617188 13.964844 9.753906 14.167969 9.902344 14.363281 C 9.953125 14.433594 10.007812 14.488281 10.0625 14.523438 Z M 10.0625 14.523438 "/>
</g>
</svg>
