<?xml version="1.0" encoding="UTF-8"?>
<svg xmlns="http://www.w3.org/2000/svg" xmlns:xlink="http://www.w3.org/1999/xlink" width="64px" height="64px" viewBox="0 0 64 64" version="1.1">
<g id="surface1">
<path style=" stroke:none;fill-rule:nonzero;fill:rgb(13.333333%,54.509804%,90.196078%);fill-opacity:1;" d="M 64.003906 58.148438 C 64.003906 61.382812 61.382812 64.003906 58.148438 64.003906 L 5.859375 64.003906 C 2.628906 64.003906 0.00390625 61.382812 0.00390625 58.148438 L 0.00390625 5.859375 C 0.00390625 2.628906 2.628906 0.00390625 5.859375 0.00390625 L 58.148438 0.00390625 C 61.382812 0.00390625 64.003906 2.628906 64.003906 5.859375 Z M 20.835938 15.800781 C 20.835938 13.042969 18.605469 10.8125 15.851562 10.8125 C 13.09375 10.8125 10.863281 13.042969 10.863281 15.800781 C 10.863281 18.554688 13.09375 20.785156 15.851562 20.785156 C 18.605469 20.785156 20.835938 18.554688 20.835938 15.800781 Z M 49.445312 26.582031 C 48.667969 25.789062 47.757812 25.203125 46.71875 24.820312 C 46.238281 24.636719 45.753906 24.5 45.25 24.402344 C 44.242188 24.203125 43.226562 24.097656 42.199219 24.085938 C 40.300781 24.066406 38.542969 24.546875 36.929688 25.527344 C 35.742188 26.246094 34.773438 27.210938 34.027344 28.417969 C 33.972656 28.507812 33.921875 28.523438 33.875 28.460938 C 33.855469 28.433594 33.847656 28.394531 33.847656 28.347656 C 33.839844 26.734375 33.84375 25.628906 33.863281 25.03125 C 33.871094 24.847656 33.792969 24.757812 33.640625 24.769531 C 33.578125 24.773438 33.542969 24.777344 33.539062 24.777344 C 30.929688 24.773438 28.328125 24.777344 25.722656 24.78125 C 25.636719 24.78125 25.59375 24.824219 25.59375 24.910156 C 25.589844 33.945312 25.59375 42.976562 25.609375 52.007812 C 25.609375 52.011719 25.609375 52.054688 25.605469 52.132812 C 25.59375 52.308594 25.671875 52.390625 25.835938 52.378906 C 25.949219 52.367188 26.003906 52.363281 26.007812 52.363281 C 28.710938 52.359375 31.410156 52.351562 34.113281 52.339844 C 34.160156 52.335938 34.199219 52.300781 34.199219 52.253906 C 34.175781 49.324219 34.164062 46.394531 34.167969 43.457031 C 34.171875 41.152344 34.1875 39.320312 34.21875 37.972656 C 34.230469 37.390625 34.253906 36.933594 34.289062 36.605469 C 34.347656 36.046875 34.441406 35.5625 34.5625 35.140625 C 34.726562 34.574219 34.945312 34.070312 35.214844 33.625 C 35.800781 32.65625 36.667969 32.046875 37.804688 31.804688 C 38.304688 31.699219 38.808594 31.640625 39.316406 31.628906 C 39.820312 31.621094 40.273438 31.667969 40.671875 31.773438 C 41.910156 32.097656 42.757812 32.894531 43.21875 34.15625 C 43.414062 34.703125 43.558594 35.308594 43.640625 35.976562 C 43.671875 36.226562 43.710938 36.644531 43.753906 37.238281 C 43.792969 37.699219 43.8125 38.121094 43.816406 38.5 C 43.84375 40.339844 43.847656 42.421875 43.824219 44.738281 C 43.820312 45.238281 43.816406 45.691406 43.816406 46.101562 C 43.816406 48.15625 43.816406 50.199219 43.816406 52.246094 C 43.816406 52.300781 43.859375 52.34375 43.914062 52.34375 L 52.273438 52.371094 C 52.328125 52.371094 52.371094 52.328125 52.371094 52.273438 C 52.371094 47.503906 52.378906 42.71875 52.390625 37.921875 C 52.394531 37.339844 52.390625 36.882812 52.382812 36.554688 C 52.359375 35.460938 52.300781 34.457031 52.207031 33.539062 C 52.089844 32.410156 51.832031 31.21875 51.441406 29.960938 C 51.023438 28.632812 50.359375 27.507812 49.445312 26.582031 Z M 20.226562 24.886719 C 20.226562 24.828125 20.175781 24.777344 20.109375 24.777344 L 11.746094 24.777344 C 11.683594 24.777344 11.628906 24.828125 11.628906 24.886719 L 11.628906 52.261719 C 11.628906 52.324219 11.683594 52.375 11.746094 52.375 L 20.109375 52.375 C 20.175781 52.375 20.226562 52.324219 20.226562 52.261719 Z M 20.226562 24.886719 "/>
</g>
</svg>
